%TF.GenerationSoftware,KiCad,Pcbnew,7.0.6*%
%TF.CreationDate,2024-05-26T17:55:49-07:00*%
%TF.ProjectId,avalanche_transmitter,6176616c-616e-4636-9865-5f7472616e73,1.0*%
%TF.SameCoordinates,Original*%
%TF.FileFunction,Soldermask,Top*%
%TF.FilePolarity,Negative*%
%FSLAX46Y46*%
G04 Gerber Fmt 4.6, Leading zero omitted, Abs format (unit mm)*
G04 Created by KiCad (PCBNEW 7.0.6) date 2024-05-26 17:55:49*
%MOMM*%
%LPD*%
G01*
G04 APERTURE LIST*
%ADD10C,2.100000*%
%ADD11R,1.800000X1.800000*%
%ADD12C,1.800000*%
%ADD13C,1.700000*%
%ADD14C,1.400000*%
%ADD15O,1.400000X1.400000*%
%ADD16R,1.600000X1.600000*%
%ADD17O,1.600000X1.600000*%
%ADD18C,1.600000*%
%ADD19R,1.700000X1.700000*%
%ADD20O,1.700000X1.700000*%
%ADD21C,1.440000*%
%ADD22O,1.500000X1.050000*%
%ADD23R,1.500000X1.050000*%
%ADD24O,3.048000X1.850000*%
G04 APERTURE END LIST*
D10*
%TO.C,REF\u002A\u002A*%
X122380000Y-149618000D03*
%TD*%
D11*
%TO.C,TRANSMITTING*%
X126134000Y-101137000D03*
D12*
X126134000Y-98597000D03*
%TD*%
D13*
%TO.C,U2*%
X137310000Y-48300000D03*
X139850000Y-48300000D03*
X142390000Y-48300000D03*
X144930000Y-48300000D03*
X147470000Y-48300000D03*
X150010000Y-48300000D03*
X152550000Y-48300000D03*
X155090000Y-48300000D03*
X157630000Y-48300000D03*
X160170000Y-48300000D03*
X162710000Y-48300000D03*
X165250000Y-48300000D03*
X137310000Y-63540000D03*
X139850000Y-63540000D03*
X142390000Y-63540000D03*
X144930000Y-63540000D03*
X147470000Y-63540000D03*
X150010000Y-63540000D03*
X152550000Y-63540000D03*
X155090000Y-63540000D03*
X157630000Y-63540000D03*
X160170000Y-63540000D03*
X162710000Y-63540000D03*
X165250000Y-63540000D03*
%TD*%
D14*
%TO.C,R9*%
X152169000Y-135549000D03*
D15*
X152169000Y-143169000D03*
%TD*%
D14*
%TO.C,R4*%
X132738000Y-145328000D03*
D15*
X140358000Y-145328000D03*
%TD*%
D14*
%TO.C,R8*%
X146835000Y-75732000D03*
D15*
X146835000Y-68112000D03*
%TD*%
D14*
%TO.C,R10*%
X146454000Y-143169000D03*
D15*
X146454000Y-135549000D03*
%TD*%
D14*
%TO.C,R7*%
X132460000Y-77918000D03*
D15*
X140080000Y-77918000D03*
%TD*%
D16*
%TO.C,U1*%
X167668000Y-71170000D03*
D17*
X165128000Y-71170000D03*
X162588000Y-71170000D03*
X160048000Y-71170000D03*
X157508000Y-71170000D03*
X154968000Y-71170000D03*
X152428000Y-71170000D03*
X152428000Y-78790000D03*
X154968000Y-78790000D03*
X157508000Y-78790000D03*
X160048000Y-78790000D03*
X162588000Y-78790000D03*
X165128000Y-78790000D03*
X167668000Y-78790000D03*
%TD*%
D18*
%TO.C,C1*%
X135532000Y-68152000D03*
X135532000Y-73152000D03*
%TD*%
D11*
%TO.C,100\u0025*%
X126134000Y-114467000D03*
D12*
X126134000Y-111927000D03*
%TD*%
D19*
%TO.C,J1*%
X150772000Y-107355000D03*
D20*
X153312000Y-107355000D03*
X155852000Y-107355000D03*
X158392000Y-107355000D03*
X160932000Y-107355000D03*
X163472000Y-107355000D03*
X166012000Y-107355000D03*
%TD*%
D14*
%TO.C,R1*%
X132780000Y-114467000D03*
D15*
X140400000Y-114467000D03*
%TD*%
D18*
%TO.C,CV1*%
X128801000Y-73152000D03*
X128801000Y-68152000D03*
%TD*%
D19*
%TO.C,On/Off*%
X159789000Y-140995000D03*
D20*
X159789000Y-138455000D03*
X159789000Y-135915000D03*
%TD*%
D21*
%TO.C,RV1*%
X130325000Y-88051000D03*
X130325000Y-85511000D03*
X130325000Y-82971000D03*
%TD*%
D14*
%TO.C,R5*%
X132780000Y-101168000D03*
D15*
X140400000Y-101168000D03*
%TD*%
D10*
%TO.C,REF\u002A\u002A*%
X172280000Y-44568000D03*
%TD*%
D11*
%TO.C,75\u0025*%
X126134000Y-124627000D03*
D12*
X126134000Y-122087000D03*
%TD*%
D14*
%TO.C,R2*%
X132738000Y-124627000D03*
D15*
X140358000Y-124627000D03*
%TD*%
D22*
%TO.C,Q1*%
X144930000Y-81955000D03*
X144930000Y-83225000D03*
D23*
X144930000Y-84495000D03*
%TD*%
D19*
%TO.C,GND*%
X170780000Y-144068000D03*
%TD*%
D11*
%TO.C,50\u0025*%
X126134000Y-134914000D03*
D12*
X126134000Y-132374000D03*
%TD*%
D14*
%TO.C,R6*%
X162380000Y-114218000D03*
D15*
X154760000Y-114218000D03*
%TD*%
D10*
%TO.C,REF\u002A\u002A*%
X122780000Y-44568000D03*
%TD*%
D19*
%TO.C,AE1*%
X141200000Y-71922000D03*
D20*
X141200000Y-69382000D03*
%TD*%
D11*
%TO.C,25\u0025*%
X126134000Y-145328000D03*
D12*
X126134000Y-142788000D03*
%TD*%
D10*
%TO.C,REF\u002A\u002A*%
X172580000Y-149618000D03*
%TD*%
D24*
%TO.C,REF\u002A\u002A*%
X148440000Y-121168000D03*
X160940000Y-121168000D03*
X148440000Y-126168000D03*
X160940000Y-126168000D03*
%TD*%
D14*
%TO.C,R3*%
X132780000Y-134914000D03*
D15*
X140400000Y-134914000D03*
%TD*%
D19*
%TO.C,Battery In (6V)*%
X170780000Y-138318000D03*
%TD*%
M02*
