%TF.GenerationSoftware,KiCad,Pcbnew,7.0.6*%
%TF.CreationDate,2024-05-26T17:55:49-07:00*%
%TF.ProjectId,avalanche_transmitter,6176616c-616e-4636-9865-5f7472616e73,1.0*%
%TF.SameCoordinates,Original*%
%TF.FileFunction,Legend,Top*%
%TF.FilePolarity,Positive*%
%FSLAX46Y46*%
G04 Gerber Fmt 4.6, Leading zero omitted, Abs format (unit mm)*
G04 Created by KiCad (PCBNEW 7.0.6) date 2024-05-26 17:55:49*
%MOMM*%
%LPD*%
G01*
G04 APERTURE LIST*
%ADD10C,0.150000*%
%ADD11C,0.300000*%
%ADD12C,0.200000*%
%ADD13C,0.250000*%
%ADD14C,0.100000*%
%ADD15C,0.120000*%
G04 APERTURE END LIST*
D10*
X168923809Y-134499819D02*
X168923809Y-133499819D01*
X168923809Y-133499819D02*
X169304761Y-133499819D01*
X169304761Y-133499819D02*
X169399999Y-133547438D01*
X169399999Y-133547438D02*
X169447618Y-133595057D01*
X169447618Y-133595057D02*
X169495237Y-133690295D01*
X169495237Y-133690295D02*
X169495237Y-133833152D01*
X169495237Y-133833152D02*
X169447618Y-133928390D01*
X169447618Y-133928390D02*
X169399999Y-133976009D01*
X169399999Y-133976009D02*
X169304761Y-134023628D01*
X169304761Y-134023628D02*
X168923809Y-134023628D01*
X170066666Y-134499819D02*
X169971428Y-134452200D01*
X169971428Y-134452200D02*
X169923809Y-134404580D01*
X169923809Y-134404580D02*
X169876190Y-134309342D01*
X169876190Y-134309342D02*
X169876190Y-134023628D01*
X169876190Y-134023628D02*
X169923809Y-133928390D01*
X169923809Y-133928390D02*
X169971428Y-133880771D01*
X169971428Y-133880771D02*
X170066666Y-133833152D01*
X170066666Y-133833152D02*
X170209523Y-133833152D01*
X170209523Y-133833152D02*
X170304761Y-133880771D01*
X170304761Y-133880771D02*
X170352380Y-133928390D01*
X170352380Y-133928390D02*
X170399999Y-134023628D01*
X170399999Y-134023628D02*
X170399999Y-134309342D01*
X170399999Y-134309342D02*
X170352380Y-134404580D01*
X170352380Y-134404580D02*
X170304761Y-134452200D01*
X170304761Y-134452200D02*
X170209523Y-134499819D01*
X170209523Y-134499819D02*
X170066666Y-134499819D01*
X170733333Y-133833152D02*
X170923809Y-134499819D01*
X170923809Y-134499819D02*
X171114285Y-134023628D01*
X171114285Y-134023628D02*
X171304761Y-134499819D01*
X171304761Y-134499819D02*
X171495237Y-133833152D01*
X172257142Y-134452200D02*
X172161904Y-134499819D01*
X172161904Y-134499819D02*
X171971428Y-134499819D01*
X171971428Y-134499819D02*
X171876190Y-134452200D01*
X171876190Y-134452200D02*
X171828571Y-134356961D01*
X171828571Y-134356961D02*
X171828571Y-133976009D01*
X171828571Y-133976009D02*
X171876190Y-133880771D01*
X171876190Y-133880771D02*
X171971428Y-133833152D01*
X171971428Y-133833152D02*
X172161904Y-133833152D01*
X172161904Y-133833152D02*
X172257142Y-133880771D01*
X172257142Y-133880771D02*
X172304761Y-133976009D01*
X172304761Y-133976009D02*
X172304761Y-134071247D01*
X172304761Y-134071247D02*
X171828571Y-134166485D01*
X172733333Y-134499819D02*
X172733333Y-133833152D01*
X172733333Y-134023628D02*
X172780952Y-133928390D01*
X172780952Y-133928390D02*
X172828571Y-133880771D01*
X172828571Y-133880771D02*
X172923809Y-133833152D01*
X172923809Y-133833152D02*
X173019047Y-133833152D01*
X170661904Y-135109819D02*
X170471428Y-135109819D01*
X170471428Y-135109819D02*
X170376190Y-135157438D01*
X170376190Y-135157438D02*
X170328571Y-135205057D01*
X170328571Y-135205057D02*
X170233333Y-135347914D01*
X170233333Y-135347914D02*
X170185714Y-135538390D01*
X170185714Y-135538390D02*
X170185714Y-135919342D01*
X170185714Y-135919342D02*
X170233333Y-136014580D01*
X170233333Y-136014580D02*
X170280952Y-136062200D01*
X170280952Y-136062200D02*
X170376190Y-136109819D01*
X170376190Y-136109819D02*
X170566666Y-136109819D01*
X170566666Y-136109819D02*
X170661904Y-136062200D01*
X170661904Y-136062200D02*
X170709523Y-136014580D01*
X170709523Y-136014580D02*
X170757142Y-135919342D01*
X170757142Y-135919342D02*
X170757142Y-135681247D01*
X170757142Y-135681247D02*
X170709523Y-135586009D01*
X170709523Y-135586009D02*
X170661904Y-135538390D01*
X170661904Y-135538390D02*
X170566666Y-135490771D01*
X170566666Y-135490771D02*
X170376190Y-135490771D01*
X170376190Y-135490771D02*
X170280952Y-135538390D01*
X170280952Y-135538390D02*
X170233333Y-135586009D01*
X170233333Y-135586009D02*
X170185714Y-135681247D01*
X171042857Y-135109819D02*
X171376190Y-136109819D01*
X171376190Y-136109819D02*
X171709523Y-135109819D01*
X125595237Y-103102438D02*
X125499999Y-103054819D01*
X125499999Y-103054819D02*
X125357142Y-103054819D01*
X125357142Y-103054819D02*
X125214285Y-103102438D01*
X125214285Y-103102438D02*
X125119047Y-103197676D01*
X125119047Y-103197676D02*
X125071428Y-103292914D01*
X125071428Y-103292914D02*
X125023809Y-103483390D01*
X125023809Y-103483390D02*
X125023809Y-103626247D01*
X125023809Y-103626247D02*
X125071428Y-103816723D01*
X125071428Y-103816723D02*
X125119047Y-103911961D01*
X125119047Y-103911961D02*
X125214285Y-104007200D01*
X125214285Y-104007200D02*
X125357142Y-104054819D01*
X125357142Y-104054819D02*
X125452380Y-104054819D01*
X125452380Y-104054819D02*
X125595237Y-104007200D01*
X125595237Y-104007200D02*
X125642856Y-103959580D01*
X125642856Y-103959580D02*
X125642856Y-103626247D01*
X125642856Y-103626247D02*
X125452380Y-103626247D01*
X126642856Y-104054819D02*
X126309523Y-103578628D01*
X126071428Y-104054819D02*
X126071428Y-103054819D01*
X126071428Y-103054819D02*
X126452380Y-103054819D01*
X126452380Y-103054819D02*
X126547618Y-103102438D01*
X126547618Y-103102438D02*
X126595237Y-103150057D01*
X126595237Y-103150057D02*
X126642856Y-103245295D01*
X126642856Y-103245295D02*
X126642856Y-103388152D01*
X126642856Y-103388152D02*
X126595237Y-103483390D01*
X126595237Y-103483390D02*
X126547618Y-103531009D01*
X126547618Y-103531009D02*
X126452380Y-103578628D01*
X126452380Y-103578628D02*
X126071428Y-103578628D01*
X127071428Y-103531009D02*
X127404761Y-103531009D01*
X127547618Y-104054819D02*
X127071428Y-104054819D01*
X127071428Y-104054819D02*
X127071428Y-103054819D01*
X127071428Y-103054819D02*
X127547618Y-103054819D01*
X127976190Y-103531009D02*
X128309523Y-103531009D01*
X128452380Y-104054819D02*
X127976190Y-104054819D01*
X127976190Y-104054819D02*
X127976190Y-103054819D01*
X127976190Y-103054819D02*
X128452380Y-103054819D01*
X128880952Y-104054819D02*
X128880952Y-103054819D01*
X128880952Y-103054819D02*
X129452380Y-104054819D01*
X129452380Y-104054819D02*
X129452380Y-103054819D01*
X129690476Y-104150057D02*
X130452380Y-104150057D01*
X131166666Y-104054819D02*
X130690476Y-104054819D01*
X130690476Y-104054819D02*
X130690476Y-103054819D01*
X131500000Y-103531009D02*
X131833333Y-103531009D01*
X131976190Y-104054819D02*
X131500000Y-104054819D01*
X131500000Y-104054819D02*
X131500000Y-103054819D01*
X131500000Y-103054819D02*
X131976190Y-103054819D01*
X132404762Y-104054819D02*
X132404762Y-103054819D01*
X132404762Y-103054819D02*
X132642857Y-103054819D01*
X132642857Y-103054819D02*
X132785714Y-103102438D01*
X132785714Y-103102438D02*
X132880952Y-103197676D01*
X132880952Y-103197676D02*
X132928571Y-103292914D01*
X132928571Y-103292914D02*
X132976190Y-103483390D01*
X132976190Y-103483390D02*
X132976190Y-103626247D01*
X132976190Y-103626247D02*
X132928571Y-103816723D01*
X132928571Y-103816723D02*
X132880952Y-103911961D01*
X132880952Y-103911961D02*
X132785714Y-104007200D01*
X132785714Y-104007200D02*
X132642857Y-104054819D01*
X132642857Y-104054819D02*
X132404762Y-104054819D01*
X125319047Y-148504819D02*
X124985714Y-148028628D01*
X124747619Y-148504819D02*
X124747619Y-147504819D01*
X124747619Y-147504819D02*
X125128571Y-147504819D01*
X125128571Y-147504819D02*
X125223809Y-147552438D01*
X125223809Y-147552438D02*
X125271428Y-147600057D01*
X125271428Y-147600057D02*
X125319047Y-147695295D01*
X125319047Y-147695295D02*
X125319047Y-147838152D01*
X125319047Y-147838152D02*
X125271428Y-147933390D01*
X125271428Y-147933390D02*
X125223809Y-147981009D01*
X125223809Y-147981009D02*
X125128571Y-148028628D01*
X125128571Y-148028628D02*
X124747619Y-148028628D01*
X125747619Y-147981009D02*
X126080952Y-147981009D01*
X126223809Y-148504819D02*
X125747619Y-148504819D01*
X125747619Y-148504819D02*
X125747619Y-147504819D01*
X125747619Y-147504819D02*
X126223809Y-147504819D01*
X126652381Y-148504819D02*
X126652381Y-147504819D01*
X126652381Y-147504819D02*
X126890476Y-147504819D01*
X126890476Y-147504819D02*
X127033333Y-147552438D01*
X127033333Y-147552438D02*
X127128571Y-147647676D01*
X127128571Y-147647676D02*
X127176190Y-147742914D01*
X127176190Y-147742914D02*
X127223809Y-147933390D01*
X127223809Y-147933390D02*
X127223809Y-148076247D01*
X127223809Y-148076247D02*
X127176190Y-148266723D01*
X127176190Y-148266723D02*
X127128571Y-148361961D01*
X127128571Y-148361961D02*
X127033333Y-148457200D01*
X127033333Y-148457200D02*
X126890476Y-148504819D01*
X126890476Y-148504819D02*
X126652381Y-148504819D01*
X127414286Y-148600057D02*
X128176190Y-148600057D01*
X128890476Y-148504819D02*
X128414286Y-148504819D01*
X128414286Y-148504819D02*
X128414286Y-147504819D01*
X129223810Y-147981009D02*
X129557143Y-147981009D01*
X129700000Y-148504819D02*
X129223810Y-148504819D01*
X129223810Y-148504819D02*
X129223810Y-147504819D01*
X129223810Y-147504819D02*
X129700000Y-147504819D01*
X130128572Y-148504819D02*
X130128572Y-147504819D01*
X130128572Y-147504819D02*
X130366667Y-147504819D01*
X130366667Y-147504819D02*
X130509524Y-147552438D01*
X130509524Y-147552438D02*
X130604762Y-147647676D01*
X130604762Y-147647676D02*
X130652381Y-147742914D01*
X130652381Y-147742914D02*
X130700000Y-147933390D01*
X130700000Y-147933390D02*
X130700000Y-148076247D01*
X130700000Y-148076247D02*
X130652381Y-148266723D01*
X130652381Y-148266723D02*
X130604762Y-148361961D01*
X130604762Y-148361961D02*
X130509524Y-148457200D01*
X130509524Y-148457200D02*
X130366667Y-148504819D01*
X130366667Y-148504819D02*
X130128572Y-148504819D01*
X124269047Y-138054819D02*
X123935714Y-137578628D01*
X123697619Y-138054819D02*
X123697619Y-137054819D01*
X123697619Y-137054819D02*
X124078571Y-137054819D01*
X124078571Y-137054819D02*
X124173809Y-137102438D01*
X124173809Y-137102438D02*
X124221428Y-137150057D01*
X124221428Y-137150057D02*
X124269047Y-137245295D01*
X124269047Y-137245295D02*
X124269047Y-137388152D01*
X124269047Y-137388152D02*
X124221428Y-137483390D01*
X124221428Y-137483390D02*
X124173809Y-137531009D01*
X124173809Y-137531009D02*
X124078571Y-137578628D01*
X124078571Y-137578628D02*
X123697619Y-137578628D01*
X124697619Y-137531009D02*
X125030952Y-137531009D01*
X125173809Y-138054819D02*
X124697619Y-138054819D01*
X124697619Y-138054819D02*
X124697619Y-137054819D01*
X124697619Y-137054819D02*
X125173809Y-137054819D01*
X125602381Y-138054819D02*
X125602381Y-137054819D01*
X125602381Y-137054819D02*
X125840476Y-137054819D01*
X125840476Y-137054819D02*
X125983333Y-137102438D01*
X125983333Y-137102438D02*
X126078571Y-137197676D01*
X126078571Y-137197676D02*
X126126190Y-137292914D01*
X126126190Y-137292914D02*
X126173809Y-137483390D01*
X126173809Y-137483390D02*
X126173809Y-137626247D01*
X126173809Y-137626247D02*
X126126190Y-137816723D01*
X126126190Y-137816723D02*
X126078571Y-137911961D01*
X126078571Y-137911961D02*
X125983333Y-138007200D01*
X125983333Y-138007200D02*
X125840476Y-138054819D01*
X125840476Y-138054819D02*
X125602381Y-138054819D01*
X126364286Y-138150057D02*
X127126190Y-138150057D01*
X127840476Y-138054819D02*
X127364286Y-138054819D01*
X127364286Y-138054819D02*
X127364286Y-137054819D01*
X128173810Y-137531009D02*
X128507143Y-137531009D01*
X128650000Y-138054819D02*
X128173810Y-138054819D01*
X128173810Y-138054819D02*
X128173810Y-137054819D01*
X128173810Y-137054819D02*
X128650000Y-137054819D01*
X129078572Y-138054819D02*
X129078572Y-137054819D01*
X129078572Y-137054819D02*
X129316667Y-137054819D01*
X129316667Y-137054819D02*
X129459524Y-137102438D01*
X129459524Y-137102438D02*
X129554762Y-137197676D01*
X129554762Y-137197676D02*
X129602381Y-137292914D01*
X129602381Y-137292914D02*
X129650000Y-137483390D01*
X129650000Y-137483390D02*
X129650000Y-137626247D01*
X129650000Y-137626247D02*
X129602381Y-137816723D01*
X129602381Y-137816723D02*
X129554762Y-137911961D01*
X129554762Y-137911961D02*
X129459524Y-138007200D01*
X129459524Y-138007200D02*
X129316667Y-138054819D01*
X129316667Y-138054819D02*
X129078572Y-138054819D01*
X125419047Y-117304819D02*
X125085714Y-116828628D01*
X124847619Y-117304819D02*
X124847619Y-116304819D01*
X124847619Y-116304819D02*
X125228571Y-116304819D01*
X125228571Y-116304819D02*
X125323809Y-116352438D01*
X125323809Y-116352438D02*
X125371428Y-116400057D01*
X125371428Y-116400057D02*
X125419047Y-116495295D01*
X125419047Y-116495295D02*
X125419047Y-116638152D01*
X125419047Y-116638152D02*
X125371428Y-116733390D01*
X125371428Y-116733390D02*
X125323809Y-116781009D01*
X125323809Y-116781009D02*
X125228571Y-116828628D01*
X125228571Y-116828628D02*
X124847619Y-116828628D01*
X125847619Y-116781009D02*
X126180952Y-116781009D01*
X126323809Y-117304819D02*
X125847619Y-117304819D01*
X125847619Y-117304819D02*
X125847619Y-116304819D01*
X125847619Y-116304819D02*
X126323809Y-116304819D01*
X126752381Y-117304819D02*
X126752381Y-116304819D01*
X126752381Y-116304819D02*
X126990476Y-116304819D01*
X126990476Y-116304819D02*
X127133333Y-116352438D01*
X127133333Y-116352438D02*
X127228571Y-116447676D01*
X127228571Y-116447676D02*
X127276190Y-116542914D01*
X127276190Y-116542914D02*
X127323809Y-116733390D01*
X127323809Y-116733390D02*
X127323809Y-116876247D01*
X127323809Y-116876247D02*
X127276190Y-117066723D01*
X127276190Y-117066723D02*
X127228571Y-117161961D01*
X127228571Y-117161961D02*
X127133333Y-117257200D01*
X127133333Y-117257200D02*
X126990476Y-117304819D01*
X126990476Y-117304819D02*
X126752381Y-117304819D01*
X127514286Y-117400057D02*
X128276190Y-117400057D01*
X128990476Y-117304819D02*
X128514286Y-117304819D01*
X128514286Y-117304819D02*
X128514286Y-116304819D01*
X129323810Y-116781009D02*
X129657143Y-116781009D01*
X129800000Y-117304819D02*
X129323810Y-117304819D01*
X129323810Y-117304819D02*
X129323810Y-116304819D01*
X129323810Y-116304819D02*
X129800000Y-116304819D01*
X130228572Y-117304819D02*
X130228572Y-116304819D01*
X130228572Y-116304819D02*
X130466667Y-116304819D01*
X130466667Y-116304819D02*
X130609524Y-116352438D01*
X130609524Y-116352438D02*
X130704762Y-116447676D01*
X130704762Y-116447676D02*
X130752381Y-116542914D01*
X130752381Y-116542914D02*
X130800000Y-116733390D01*
X130800000Y-116733390D02*
X130800000Y-116876247D01*
X130800000Y-116876247D02*
X130752381Y-117066723D01*
X130752381Y-117066723D02*
X130704762Y-117161961D01*
X130704762Y-117161961D02*
X130609524Y-117257200D01*
X130609524Y-117257200D02*
X130466667Y-117304819D01*
X130466667Y-117304819D02*
X130228572Y-117304819D01*
X146833332Y-116181009D02*
X146976189Y-116228628D01*
X146976189Y-116228628D02*
X147023808Y-116276247D01*
X147023808Y-116276247D02*
X147071427Y-116371485D01*
X147071427Y-116371485D02*
X147071427Y-116514342D01*
X147071427Y-116514342D02*
X147023808Y-116609580D01*
X147023808Y-116609580D02*
X146976189Y-116657200D01*
X146976189Y-116657200D02*
X146880951Y-116704819D01*
X146880951Y-116704819D02*
X146499999Y-116704819D01*
X146499999Y-116704819D02*
X146499999Y-115704819D01*
X146499999Y-115704819D02*
X146833332Y-115704819D01*
X146833332Y-115704819D02*
X146928570Y-115752438D01*
X146928570Y-115752438D02*
X146976189Y-115800057D01*
X146976189Y-115800057D02*
X147023808Y-115895295D01*
X147023808Y-115895295D02*
X147023808Y-115990533D01*
X147023808Y-115990533D02*
X146976189Y-116085771D01*
X146976189Y-116085771D02*
X146928570Y-116133390D01*
X146928570Y-116133390D02*
X146833332Y-116181009D01*
X146833332Y-116181009D02*
X146499999Y-116181009D01*
X147928570Y-116704819D02*
X147928570Y-116181009D01*
X147928570Y-116181009D02*
X147880951Y-116085771D01*
X147880951Y-116085771D02*
X147785713Y-116038152D01*
X147785713Y-116038152D02*
X147595237Y-116038152D01*
X147595237Y-116038152D02*
X147499999Y-116085771D01*
X147928570Y-116657200D02*
X147833332Y-116704819D01*
X147833332Y-116704819D02*
X147595237Y-116704819D01*
X147595237Y-116704819D02*
X147499999Y-116657200D01*
X147499999Y-116657200D02*
X147452380Y-116561961D01*
X147452380Y-116561961D02*
X147452380Y-116466723D01*
X147452380Y-116466723D02*
X147499999Y-116371485D01*
X147499999Y-116371485D02*
X147595237Y-116323866D01*
X147595237Y-116323866D02*
X147833332Y-116323866D01*
X147833332Y-116323866D02*
X147928570Y-116276247D01*
X148261904Y-116038152D02*
X148642856Y-116038152D01*
X148404761Y-115704819D02*
X148404761Y-116561961D01*
X148404761Y-116561961D02*
X148452380Y-116657200D01*
X148452380Y-116657200D02*
X148547618Y-116704819D01*
X148547618Y-116704819D02*
X148642856Y-116704819D01*
X148833333Y-116038152D02*
X149214285Y-116038152D01*
X148976190Y-115704819D02*
X148976190Y-116561961D01*
X148976190Y-116561961D02*
X149023809Y-116657200D01*
X149023809Y-116657200D02*
X149119047Y-116704819D01*
X149119047Y-116704819D02*
X149214285Y-116704819D01*
X149928571Y-116657200D02*
X149833333Y-116704819D01*
X149833333Y-116704819D02*
X149642857Y-116704819D01*
X149642857Y-116704819D02*
X149547619Y-116657200D01*
X149547619Y-116657200D02*
X149500000Y-116561961D01*
X149500000Y-116561961D02*
X149500000Y-116181009D01*
X149500000Y-116181009D02*
X149547619Y-116085771D01*
X149547619Y-116085771D02*
X149642857Y-116038152D01*
X149642857Y-116038152D02*
X149833333Y-116038152D01*
X149833333Y-116038152D02*
X149928571Y-116085771D01*
X149928571Y-116085771D02*
X149976190Y-116181009D01*
X149976190Y-116181009D02*
X149976190Y-116276247D01*
X149976190Y-116276247D02*
X149500000Y-116371485D01*
X150404762Y-116704819D02*
X150404762Y-116038152D01*
X150404762Y-116228628D02*
X150452381Y-116133390D01*
X150452381Y-116133390D02*
X150500000Y-116085771D01*
X150500000Y-116085771D02*
X150595238Y-116038152D01*
X150595238Y-116038152D02*
X150690476Y-116038152D01*
X150928572Y-116038152D02*
X151166667Y-116704819D01*
X151404762Y-116038152D02*
X151166667Y-116704819D01*
X151166667Y-116704819D02*
X151071429Y-116942914D01*
X151071429Y-116942914D02*
X151023810Y-116990533D01*
X151023810Y-116990533D02*
X150928572Y-117038152D01*
X153119048Y-116609580D02*
X153071429Y-116657200D01*
X153071429Y-116657200D02*
X152928572Y-116704819D01*
X152928572Y-116704819D02*
X152833334Y-116704819D01*
X152833334Y-116704819D02*
X152690477Y-116657200D01*
X152690477Y-116657200D02*
X152595239Y-116561961D01*
X152595239Y-116561961D02*
X152547620Y-116466723D01*
X152547620Y-116466723D02*
X152500001Y-116276247D01*
X152500001Y-116276247D02*
X152500001Y-116133390D01*
X152500001Y-116133390D02*
X152547620Y-115942914D01*
X152547620Y-115942914D02*
X152595239Y-115847676D01*
X152595239Y-115847676D02*
X152690477Y-115752438D01*
X152690477Y-115752438D02*
X152833334Y-115704819D01*
X152833334Y-115704819D02*
X152928572Y-115704819D01*
X152928572Y-115704819D02*
X153071429Y-115752438D01*
X153071429Y-115752438D02*
X153119048Y-115800057D01*
X153547620Y-116704819D02*
X153547620Y-115704819D01*
X153976191Y-116704819D02*
X153976191Y-116181009D01*
X153976191Y-116181009D02*
X153928572Y-116085771D01*
X153928572Y-116085771D02*
X153833334Y-116038152D01*
X153833334Y-116038152D02*
X153690477Y-116038152D01*
X153690477Y-116038152D02*
X153595239Y-116085771D01*
X153595239Y-116085771D02*
X153547620Y-116133390D01*
X154833334Y-116657200D02*
X154738096Y-116704819D01*
X154738096Y-116704819D02*
X154547620Y-116704819D01*
X154547620Y-116704819D02*
X154452382Y-116657200D01*
X154452382Y-116657200D02*
X154404763Y-116561961D01*
X154404763Y-116561961D02*
X154404763Y-116181009D01*
X154404763Y-116181009D02*
X154452382Y-116085771D01*
X154452382Y-116085771D02*
X154547620Y-116038152D01*
X154547620Y-116038152D02*
X154738096Y-116038152D01*
X154738096Y-116038152D02*
X154833334Y-116085771D01*
X154833334Y-116085771D02*
X154880953Y-116181009D01*
X154880953Y-116181009D02*
X154880953Y-116276247D01*
X154880953Y-116276247D02*
X154404763Y-116371485D01*
X155738096Y-116657200D02*
X155642858Y-116704819D01*
X155642858Y-116704819D02*
X155452382Y-116704819D01*
X155452382Y-116704819D02*
X155357144Y-116657200D01*
X155357144Y-116657200D02*
X155309525Y-116609580D01*
X155309525Y-116609580D02*
X155261906Y-116514342D01*
X155261906Y-116514342D02*
X155261906Y-116228628D01*
X155261906Y-116228628D02*
X155309525Y-116133390D01*
X155309525Y-116133390D02*
X155357144Y-116085771D01*
X155357144Y-116085771D02*
X155452382Y-116038152D01*
X155452382Y-116038152D02*
X155642858Y-116038152D01*
X155642858Y-116038152D02*
X155738096Y-116085771D01*
X156166668Y-116704819D02*
X156166668Y-115704819D01*
X156261906Y-116323866D02*
X156547620Y-116704819D01*
X156547620Y-116038152D02*
X156166668Y-116419104D01*
D11*
X132100828Y-57595489D02*
X130600828Y-57595489D01*
X130600828Y-57595489D02*
X131672257Y-57095489D01*
X131672257Y-57095489D02*
X130600828Y-56595489D01*
X130600828Y-56595489D02*
X132100828Y-56595489D01*
X132100828Y-55881203D02*
X131100828Y-55881203D01*
X130600828Y-55881203D02*
X130672257Y-55952631D01*
X130672257Y-55952631D02*
X130743685Y-55881203D01*
X130743685Y-55881203D02*
X130672257Y-55809774D01*
X130672257Y-55809774D02*
X130600828Y-55881203D01*
X130600828Y-55881203D02*
X130743685Y-55881203D01*
X131100828Y-55166917D02*
X132100828Y-55166917D01*
X131243685Y-55166917D02*
X131172257Y-55095488D01*
X131172257Y-55095488D02*
X131100828Y-54952631D01*
X131100828Y-54952631D02*
X131100828Y-54738345D01*
X131100828Y-54738345D02*
X131172257Y-54595488D01*
X131172257Y-54595488D02*
X131315114Y-54524060D01*
X131315114Y-54524060D02*
X132100828Y-54524060D01*
X132100828Y-53809774D02*
X131100828Y-53809774D01*
X130600828Y-53809774D02*
X130672257Y-53881202D01*
X130672257Y-53881202D02*
X130743685Y-53809774D01*
X130743685Y-53809774D02*
X130672257Y-53738345D01*
X130672257Y-53738345D02*
X130600828Y-53809774D01*
X130600828Y-53809774D02*
X130743685Y-53809774D01*
X132100828Y-51952631D02*
X130600828Y-51952631D01*
X130600828Y-51952631D02*
X130600828Y-51381202D01*
X130600828Y-51381202D02*
X130672257Y-51238345D01*
X130672257Y-51238345D02*
X130743685Y-51166916D01*
X130743685Y-51166916D02*
X130886542Y-51095488D01*
X130886542Y-51095488D02*
X131100828Y-51095488D01*
X131100828Y-51095488D02*
X131243685Y-51166916D01*
X131243685Y-51166916D02*
X131315114Y-51238345D01*
X131315114Y-51238345D02*
X131386542Y-51381202D01*
X131386542Y-51381202D02*
X131386542Y-51952631D01*
X132100828Y-50452631D02*
X131100828Y-50452631D01*
X131386542Y-50452631D02*
X131243685Y-50381202D01*
X131243685Y-50381202D02*
X131172257Y-50309774D01*
X131172257Y-50309774D02*
X131100828Y-50166916D01*
X131100828Y-50166916D02*
X131100828Y-50024059D01*
X132100828Y-49309774D02*
X132029400Y-49452631D01*
X132029400Y-49452631D02*
X131957971Y-49524060D01*
X131957971Y-49524060D02*
X131815114Y-49595488D01*
X131815114Y-49595488D02*
X131386542Y-49595488D01*
X131386542Y-49595488D02*
X131243685Y-49524060D01*
X131243685Y-49524060D02*
X131172257Y-49452631D01*
X131172257Y-49452631D02*
X131100828Y-49309774D01*
X131100828Y-49309774D02*
X131100828Y-49095488D01*
X131100828Y-49095488D02*
X131172257Y-48952631D01*
X131172257Y-48952631D02*
X131243685Y-48881203D01*
X131243685Y-48881203D02*
X131386542Y-48809774D01*
X131386542Y-48809774D02*
X131815114Y-48809774D01*
X131815114Y-48809774D02*
X131957971Y-48881203D01*
X131957971Y-48881203D02*
X132029400Y-48952631D01*
X132029400Y-48952631D02*
X132100828Y-49095488D01*
X132100828Y-49095488D02*
X132100828Y-49309774D01*
X154461653Y-81000828D02*
X155461653Y-81000828D01*
X155461653Y-81000828D02*
X154818796Y-82500828D01*
X156675939Y-81500828D02*
X156675939Y-82500828D01*
X156318796Y-80929400D02*
X155961653Y-82000828D01*
X155961653Y-82000828D02*
X156890224Y-82000828D01*
X157461652Y-82500828D02*
X157461652Y-81000828D01*
X157461652Y-81715114D02*
X158318795Y-81715114D01*
X158318795Y-82500828D02*
X158318795Y-81000828D01*
X159890224Y-82357971D02*
X159818796Y-82429400D01*
X159818796Y-82429400D02*
X159604510Y-82500828D01*
X159604510Y-82500828D02*
X159461653Y-82500828D01*
X159461653Y-82500828D02*
X159247367Y-82429400D01*
X159247367Y-82429400D02*
X159104510Y-82286542D01*
X159104510Y-82286542D02*
X159033081Y-82143685D01*
X159033081Y-82143685D02*
X158961653Y-81857971D01*
X158961653Y-81857971D02*
X158961653Y-81643685D01*
X158961653Y-81643685D02*
X159033081Y-81357971D01*
X159033081Y-81357971D02*
X159104510Y-81215114D01*
X159104510Y-81215114D02*
X159247367Y-81072257D01*
X159247367Y-81072257D02*
X159461653Y-81000828D01*
X159461653Y-81000828D02*
X159604510Y-81000828D01*
X159604510Y-81000828D02*
X159818796Y-81072257D01*
X159818796Y-81072257D02*
X159890224Y-81143685D01*
X160818796Y-81000828D02*
X160961653Y-81000828D01*
X160961653Y-81000828D02*
X161104510Y-81072257D01*
X161104510Y-81072257D02*
X161175939Y-81143685D01*
X161175939Y-81143685D02*
X161247367Y-81286542D01*
X161247367Y-81286542D02*
X161318796Y-81572257D01*
X161318796Y-81572257D02*
X161318796Y-81929400D01*
X161318796Y-81929400D02*
X161247367Y-82215114D01*
X161247367Y-82215114D02*
X161175939Y-82357971D01*
X161175939Y-82357971D02*
X161104510Y-82429400D01*
X161104510Y-82429400D02*
X160961653Y-82500828D01*
X160961653Y-82500828D02*
X160818796Y-82500828D01*
X160818796Y-82500828D02*
X160675939Y-82429400D01*
X160675939Y-82429400D02*
X160604510Y-82357971D01*
X160604510Y-82357971D02*
X160533081Y-82215114D01*
X160533081Y-82215114D02*
X160461653Y-81929400D01*
X160461653Y-81929400D02*
X160461653Y-81572257D01*
X160461653Y-81572257D02*
X160533081Y-81286542D01*
X160533081Y-81286542D02*
X160604510Y-81143685D01*
X160604510Y-81143685D02*
X160675939Y-81072257D01*
X160675939Y-81072257D02*
X160818796Y-81000828D01*
X162247367Y-81000828D02*
X162390224Y-81000828D01*
X162390224Y-81000828D02*
X162533081Y-81072257D01*
X162533081Y-81072257D02*
X162604510Y-81143685D01*
X162604510Y-81143685D02*
X162675938Y-81286542D01*
X162675938Y-81286542D02*
X162747367Y-81572257D01*
X162747367Y-81572257D02*
X162747367Y-81929400D01*
X162747367Y-81929400D02*
X162675938Y-82215114D01*
X162675938Y-82215114D02*
X162604510Y-82357971D01*
X162604510Y-82357971D02*
X162533081Y-82429400D01*
X162533081Y-82429400D02*
X162390224Y-82500828D01*
X162390224Y-82500828D02*
X162247367Y-82500828D01*
X162247367Y-82500828D02*
X162104510Y-82429400D01*
X162104510Y-82429400D02*
X162033081Y-82357971D01*
X162033081Y-82357971D02*
X161961652Y-82215114D01*
X161961652Y-82215114D02*
X161890224Y-81929400D01*
X161890224Y-81929400D02*
X161890224Y-81572257D01*
X161890224Y-81572257D02*
X161961652Y-81286542D01*
X161961652Y-81286542D02*
X162033081Y-81143685D01*
X162033081Y-81143685D02*
X162104510Y-81072257D01*
X162104510Y-81072257D02*
X162247367Y-81000828D01*
X153633082Y-87779400D02*
X153847368Y-87850828D01*
X153847368Y-87850828D02*
X154204510Y-87850828D01*
X154204510Y-87850828D02*
X154347368Y-87779400D01*
X154347368Y-87779400D02*
X154418796Y-87707971D01*
X154418796Y-87707971D02*
X154490225Y-87565114D01*
X154490225Y-87565114D02*
X154490225Y-87422257D01*
X154490225Y-87422257D02*
X154418796Y-87279400D01*
X154418796Y-87279400D02*
X154347368Y-87207971D01*
X154347368Y-87207971D02*
X154204510Y-87136542D01*
X154204510Y-87136542D02*
X153918796Y-87065114D01*
X153918796Y-87065114D02*
X153775939Y-86993685D01*
X153775939Y-86993685D02*
X153704510Y-86922257D01*
X153704510Y-86922257D02*
X153633082Y-86779400D01*
X153633082Y-86779400D02*
X153633082Y-86636542D01*
X153633082Y-86636542D02*
X153704510Y-86493685D01*
X153704510Y-86493685D02*
X153775939Y-86422257D01*
X153775939Y-86422257D02*
X153918796Y-86350828D01*
X153918796Y-86350828D02*
X154275939Y-86350828D01*
X154275939Y-86350828D02*
X154490225Y-86422257D01*
X155133081Y-87850828D02*
X155133081Y-86850828D01*
X155133081Y-86350828D02*
X155061653Y-86422257D01*
X155061653Y-86422257D02*
X155133081Y-86493685D01*
X155133081Y-86493685D02*
X155204510Y-86422257D01*
X155204510Y-86422257D02*
X155133081Y-86350828D01*
X155133081Y-86350828D02*
X155133081Y-86493685D01*
X156561653Y-86350828D02*
X155847367Y-86350828D01*
X155847367Y-86350828D02*
X155775939Y-87065114D01*
X155775939Y-87065114D02*
X155847367Y-86993685D01*
X155847367Y-86993685D02*
X155990225Y-86922257D01*
X155990225Y-86922257D02*
X156347367Y-86922257D01*
X156347367Y-86922257D02*
X156490225Y-86993685D01*
X156490225Y-86993685D02*
X156561653Y-87065114D01*
X156561653Y-87065114D02*
X156633082Y-87207971D01*
X156633082Y-87207971D02*
X156633082Y-87565114D01*
X156633082Y-87565114D02*
X156561653Y-87707971D01*
X156561653Y-87707971D02*
X156490225Y-87779400D01*
X156490225Y-87779400D02*
X156347367Y-87850828D01*
X156347367Y-87850828D02*
X155990225Y-87850828D01*
X155990225Y-87850828D02*
X155847367Y-87779400D01*
X155847367Y-87779400D02*
X155775939Y-87707971D01*
X157133081Y-86350828D02*
X158061653Y-86350828D01*
X158061653Y-86350828D02*
X157561653Y-86922257D01*
X157561653Y-86922257D02*
X157775938Y-86922257D01*
X157775938Y-86922257D02*
X157918796Y-86993685D01*
X157918796Y-86993685D02*
X157990224Y-87065114D01*
X157990224Y-87065114D02*
X158061653Y-87207971D01*
X158061653Y-87207971D02*
X158061653Y-87565114D01*
X158061653Y-87565114D02*
X157990224Y-87707971D01*
X157990224Y-87707971D02*
X157918796Y-87779400D01*
X157918796Y-87779400D02*
X157775938Y-87850828D01*
X157775938Y-87850828D02*
X157347367Y-87850828D01*
X157347367Y-87850828D02*
X157204510Y-87779400D01*
X157204510Y-87779400D02*
X157133081Y-87707971D01*
X159418795Y-86350828D02*
X158704509Y-86350828D01*
X158704509Y-86350828D02*
X158633081Y-87065114D01*
X158633081Y-87065114D02*
X158704509Y-86993685D01*
X158704509Y-86993685D02*
X158847367Y-86922257D01*
X158847367Y-86922257D02*
X159204509Y-86922257D01*
X159204509Y-86922257D02*
X159347367Y-86993685D01*
X159347367Y-86993685D02*
X159418795Y-87065114D01*
X159418795Y-87065114D02*
X159490224Y-87207971D01*
X159490224Y-87207971D02*
X159490224Y-87565114D01*
X159490224Y-87565114D02*
X159418795Y-87707971D01*
X159418795Y-87707971D02*
X159347367Y-87779400D01*
X159347367Y-87779400D02*
X159204509Y-87850828D01*
X159204509Y-87850828D02*
X158847367Y-87850828D01*
X158847367Y-87850828D02*
X158704509Y-87779400D01*
X158704509Y-87779400D02*
X158633081Y-87707971D01*
X160918795Y-87850828D02*
X160061652Y-87850828D01*
X160490223Y-87850828D02*
X160490223Y-86350828D01*
X160490223Y-86350828D02*
X160347366Y-86565114D01*
X160347366Y-86565114D02*
X160204509Y-86707971D01*
X160204509Y-86707971D02*
X160061652Y-86779400D01*
D12*
X143080000Y-88518000D02*
X174080000Y-88518000D01*
X174080000Y-109518000D01*
X143080000Y-109518000D01*
X143080000Y-88518000D01*
X136040977Y-49168000D02*
G75*
G03*
X136040977Y-49168000I-460977J0D01*
G01*
X136040977Y-62457023D02*
G75*
G03*
X136040977Y-62457023I-460977J0D01*
G01*
D11*
X145165715Y-147575257D02*
X145880001Y-147575257D01*
X145022858Y-148003828D02*
X145522858Y-146503828D01*
X145522858Y-146503828D02*
X146022858Y-148003828D01*
X146380000Y-147003828D02*
X146737143Y-148003828D01*
X146737143Y-148003828D02*
X147094286Y-147003828D01*
X148308572Y-148003828D02*
X148308572Y-147218114D01*
X148308572Y-147218114D02*
X148237143Y-147075257D01*
X148237143Y-147075257D02*
X148094286Y-147003828D01*
X148094286Y-147003828D02*
X147808572Y-147003828D01*
X147808572Y-147003828D02*
X147665714Y-147075257D01*
X148308572Y-147932400D02*
X148165714Y-148003828D01*
X148165714Y-148003828D02*
X147808572Y-148003828D01*
X147808572Y-148003828D02*
X147665714Y-147932400D01*
X147665714Y-147932400D02*
X147594286Y-147789542D01*
X147594286Y-147789542D02*
X147594286Y-147646685D01*
X147594286Y-147646685D02*
X147665714Y-147503828D01*
X147665714Y-147503828D02*
X147808572Y-147432400D01*
X147808572Y-147432400D02*
X148165714Y-147432400D01*
X148165714Y-147432400D02*
X148308572Y-147360971D01*
X149237143Y-148003828D02*
X149094286Y-147932400D01*
X149094286Y-147932400D02*
X149022857Y-147789542D01*
X149022857Y-147789542D02*
X149022857Y-146503828D01*
X150451429Y-148003828D02*
X150451429Y-147218114D01*
X150451429Y-147218114D02*
X150380000Y-147075257D01*
X150380000Y-147075257D02*
X150237143Y-147003828D01*
X150237143Y-147003828D02*
X149951429Y-147003828D01*
X149951429Y-147003828D02*
X149808571Y-147075257D01*
X150451429Y-147932400D02*
X150308571Y-148003828D01*
X150308571Y-148003828D02*
X149951429Y-148003828D01*
X149951429Y-148003828D02*
X149808571Y-147932400D01*
X149808571Y-147932400D02*
X149737143Y-147789542D01*
X149737143Y-147789542D02*
X149737143Y-147646685D01*
X149737143Y-147646685D02*
X149808571Y-147503828D01*
X149808571Y-147503828D02*
X149951429Y-147432400D01*
X149951429Y-147432400D02*
X150308571Y-147432400D01*
X150308571Y-147432400D02*
X150451429Y-147360971D01*
X151165714Y-147003828D02*
X151165714Y-148003828D01*
X151165714Y-147146685D02*
X151237143Y-147075257D01*
X151237143Y-147075257D02*
X151380000Y-147003828D01*
X151380000Y-147003828D02*
X151594286Y-147003828D01*
X151594286Y-147003828D02*
X151737143Y-147075257D01*
X151737143Y-147075257D02*
X151808572Y-147218114D01*
X151808572Y-147218114D02*
X151808572Y-148003828D01*
X153165715Y-147932400D02*
X153022857Y-148003828D01*
X153022857Y-148003828D02*
X152737143Y-148003828D01*
X152737143Y-148003828D02*
X152594286Y-147932400D01*
X152594286Y-147932400D02*
X152522857Y-147860971D01*
X152522857Y-147860971D02*
X152451429Y-147718114D01*
X152451429Y-147718114D02*
X152451429Y-147289542D01*
X152451429Y-147289542D02*
X152522857Y-147146685D01*
X152522857Y-147146685D02*
X152594286Y-147075257D01*
X152594286Y-147075257D02*
X152737143Y-147003828D01*
X152737143Y-147003828D02*
X153022857Y-147003828D01*
X153022857Y-147003828D02*
X153165715Y-147075257D01*
X153808571Y-148003828D02*
X153808571Y-146503828D01*
X154451429Y-148003828D02*
X154451429Y-147218114D01*
X154451429Y-147218114D02*
X154380000Y-147075257D01*
X154380000Y-147075257D02*
X154237143Y-147003828D01*
X154237143Y-147003828D02*
X154022857Y-147003828D01*
X154022857Y-147003828D02*
X153880000Y-147075257D01*
X153880000Y-147075257D02*
X153808571Y-147146685D01*
X155737143Y-147932400D02*
X155594286Y-148003828D01*
X155594286Y-148003828D02*
X155308572Y-148003828D01*
X155308572Y-148003828D02*
X155165714Y-147932400D01*
X155165714Y-147932400D02*
X155094286Y-147789542D01*
X155094286Y-147789542D02*
X155094286Y-147218114D01*
X155094286Y-147218114D02*
X155165714Y-147075257D01*
X155165714Y-147075257D02*
X155308572Y-147003828D01*
X155308572Y-147003828D02*
X155594286Y-147003828D01*
X155594286Y-147003828D02*
X155737143Y-147075257D01*
X155737143Y-147075257D02*
X155808572Y-147218114D01*
X155808572Y-147218114D02*
X155808572Y-147360971D01*
X155808572Y-147360971D02*
X155094286Y-147503828D01*
X157380000Y-146503828D02*
X158237143Y-146503828D01*
X157808571Y-148003828D02*
X157808571Y-146503828D01*
X158737142Y-148003828D02*
X158737142Y-147003828D01*
X158737142Y-147289542D02*
X158808571Y-147146685D01*
X158808571Y-147146685D02*
X158880000Y-147075257D01*
X158880000Y-147075257D02*
X159022857Y-147003828D01*
X159022857Y-147003828D02*
X159165714Y-147003828D01*
X160308571Y-148003828D02*
X160308571Y-147218114D01*
X160308571Y-147218114D02*
X160237142Y-147075257D01*
X160237142Y-147075257D02*
X160094285Y-147003828D01*
X160094285Y-147003828D02*
X159808571Y-147003828D01*
X159808571Y-147003828D02*
X159665713Y-147075257D01*
X160308571Y-147932400D02*
X160165713Y-148003828D01*
X160165713Y-148003828D02*
X159808571Y-148003828D01*
X159808571Y-148003828D02*
X159665713Y-147932400D01*
X159665713Y-147932400D02*
X159594285Y-147789542D01*
X159594285Y-147789542D02*
X159594285Y-147646685D01*
X159594285Y-147646685D02*
X159665713Y-147503828D01*
X159665713Y-147503828D02*
X159808571Y-147432400D01*
X159808571Y-147432400D02*
X160165713Y-147432400D01*
X160165713Y-147432400D02*
X160308571Y-147360971D01*
X161022856Y-147003828D02*
X161022856Y-148003828D01*
X161022856Y-147146685D02*
X161094285Y-147075257D01*
X161094285Y-147075257D02*
X161237142Y-147003828D01*
X161237142Y-147003828D02*
X161451428Y-147003828D01*
X161451428Y-147003828D02*
X161594285Y-147075257D01*
X161594285Y-147075257D02*
X161665714Y-147218114D01*
X161665714Y-147218114D02*
X161665714Y-148003828D01*
X162308571Y-147932400D02*
X162451428Y-148003828D01*
X162451428Y-148003828D02*
X162737142Y-148003828D01*
X162737142Y-148003828D02*
X162879999Y-147932400D01*
X162879999Y-147932400D02*
X162951428Y-147789542D01*
X162951428Y-147789542D02*
X162951428Y-147718114D01*
X162951428Y-147718114D02*
X162879999Y-147575257D01*
X162879999Y-147575257D02*
X162737142Y-147503828D01*
X162737142Y-147503828D02*
X162522857Y-147503828D01*
X162522857Y-147503828D02*
X162379999Y-147432400D01*
X162379999Y-147432400D02*
X162308571Y-147289542D01*
X162308571Y-147289542D02*
X162308571Y-147218114D01*
X162308571Y-147218114D02*
X162379999Y-147075257D01*
X162379999Y-147075257D02*
X162522857Y-147003828D01*
X162522857Y-147003828D02*
X162737142Y-147003828D01*
X162737142Y-147003828D02*
X162879999Y-147075257D01*
X163594285Y-148003828D02*
X163594285Y-147003828D01*
X163594285Y-147146685D02*
X163665714Y-147075257D01*
X163665714Y-147075257D02*
X163808571Y-147003828D01*
X163808571Y-147003828D02*
X164022857Y-147003828D01*
X164022857Y-147003828D02*
X164165714Y-147075257D01*
X164165714Y-147075257D02*
X164237143Y-147218114D01*
X164237143Y-147218114D02*
X164237143Y-148003828D01*
X164237143Y-147218114D02*
X164308571Y-147075257D01*
X164308571Y-147075257D02*
X164451428Y-147003828D01*
X164451428Y-147003828D02*
X164665714Y-147003828D01*
X164665714Y-147003828D02*
X164808571Y-147075257D01*
X164808571Y-147075257D02*
X164880000Y-147218114D01*
X164880000Y-147218114D02*
X164880000Y-148003828D01*
X165594285Y-148003828D02*
X165594285Y-147003828D01*
X165594285Y-146503828D02*
X165522857Y-146575257D01*
X165522857Y-146575257D02*
X165594285Y-146646685D01*
X165594285Y-146646685D02*
X165665714Y-146575257D01*
X165665714Y-146575257D02*
X165594285Y-146503828D01*
X165594285Y-146503828D02*
X165594285Y-146646685D01*
X166094286Y-147003828D02*
X166665714Y-147003828D01*
X166308571Y-146503828D02*
X166308571Y-147789542D01*
X166308571Y-147789542D02*
X166380000Y-147932400D01*
X166380000Y-147932400D02*
X166522857Y-148003828D01*
X166522857Y-148003828D02*
X166665714Y-148003828D01*
X166951429Y-147003828D02*
X167522857Y-147003828D01*
X167165714Y-146503828D02*
X167165714Y-147789542D01*
X167165714Y-147789542D02*
X167237143Y-147932400D01*
X167237143Y-147932400D02*
X167380000Y-148003828D01*
X167380000Y-148003828D02*
X167522857Y-148003828D01*
X168594286Y-147932400D02*
X168451429Y-148003828D01*
X168451429Y-148003828D02*
X168165715Y-148003828D01*
X168165715Y-148003828D02*
X168022857Y-147932400D01*
X168022857Y-147932400D02*
X167951429Y-147789542D01*
X167951429Y-147789542D02*
X167951429Y-147218114D01*
X167951429Y-147218114D02*
X168022857Y-147075257D01*
X168022857Y-147075257D02*
X168165715Y-147003828D01*
X168165715Y-147003828D02*
X168451429Y-147003828D01*
X168451429Y-147003828D02*
X168594286Y-147075257D01*
X168594286Y-147075257D02*
X168665715Y-147218114D01*
X168665715Y-147218114D02*
X168665715Y-147360971D01*
X168665715Y-147360971D02*
X167951429Y-147503828D01*
X169308571Y-148003828D02*
X169308571Y-147003828D01*
X169308571Y-147289542D02*
X169380000Y-147146685D01*
X169380000Y-147146685D02*
X169451429Y-147075257D01*
X169451429Y-147075257D02*
X169594286Y-147003828D01*
X169594286Y-147003828D02*
X169737143Y-147003828D01*
X153665715Y-149418828D02*
X153665715Y-150418828D01*
X153308572Y-148847400D02*
X152951429Y-149918828D01*
X152951429Y-149918828D02*
X153880000Y-149918828D01*
X155165714Y-148918828D02*
X154451428Y-148918828D01*
X154451428Y-148918828D02*
X154380000Y-149633114D01*
X154380000Y-149633114D02*
X154451428Y-149561685D01*
X154451428Y-149561685D02*
X154594286Y-149490257D01*
X154594286Y-149490257D02*
X154951428Y-149490257D01*
X154951428Y-149490257D02*
X155094286Y-149561685D01*
X155094286Y-149561685D02*
X155165714Y-149633114D01*
X155165714Y-149633114D02*
X155237143Y-149775971D01*
X155237143Y-149775971D02*
X155237143Y-150133114D01*
X155237143Y-150133114D02*
X155165714Y-150275971D01*
X155165714Y-150275971D02*
X155094286Y-150347400D01*
X155094286Y-150347400D02*
X154951428Y-150418828D01*
X154951428Y-150418828D02*
X154594286Y-150418828D01*
X154594286Y-150418828D02*
X154451428Y-150347400D01*
X154451428Y-150347400D02*
X154380000Y-150275971D01*
X155737142Y-148918828D02*
X156737142Y-148918828D01*
X156737142Y-148918828D02*
X156094285Y-150418828D01*
X158451427Y-150418828D02*
X158451427Y-148918828D01*
X158594285Y-149847400D02*
X159022856Y-150418828D01*
X159022856Y-149418828D02*
X158451427Y-149990257D01*
X159665713Y-150418828D02*
X159665713Y-148918828D01*
X159665713Y-149633114D02*
X160522856Y-149633114D01*
X160522856Y-150418828D02*
X160522856Y-148918828D01*
X161094285Y-149418828D02*
X161880000Y-149418828D01*
X161880000Y-149418828D02*
X161094285Y-150418828D01*
X161094285Y-150418828D02*
X161880000Y-150418828D01*
D13*
X125479999Y-106593809D02*
X125622856Y-106641428D01*
X125622856Y-106641428D02*
X125670475Y-106689047D01*
X125670475Y-106689047D02*
X125718094Y-106784285D01*
X125718094Y-106784285D02*
X125718094Y-106927142D01*
X125718094Y-106927142D02*
X125670475Y-107022380D01*
X125670475Y-107022380D02*
X125622856Y-107070000D01*
X125622856Y-107070000D02*
X125527618Y-107117619D01*
X125527618Y-107117619D02*
X125146666Y-107117619D01*
X125146666Y-107117619D02*
X125146666Y-106117619D01*
X125146666Y-106117619D02*
X125479999Y-106117619D01*
X125479999Y-106117619D02*
X125575237Y-106165238D01*
X125575237Y-106165238D02*
X125622856Y-106212857D01*
X125622856Y-106212857D02*
X125670475Y-106308095D01*
X125670475Y-106308095D02*
X125670475Y-106403333D01*
X125670475Y-106403333D02*
X125622856Y-106498571D01*
X125622856Y-106498571D02*
X125575237Y-106546190D01*
X125575237Y-106546190D02*
X125479999Y-106593809D01*
X125479999Y-106593809D02*
X125146666Y-106593809D01*
X126099047Y-106831904D02*
X126575237Y-106831904D01*
X126003809Y-107117619D02*
X126337142Y-106117619D01*
X126337142Y-106117619D02*
X126670475Y-107117619D01*
X126860952Y-106117619D02*
X127432380Y-106117619D01*
X127146666Y-107117619D02*
X127146666Y-106117619D01*
X127622857Y-106117619D02*
X128194285Y-106117619D01*
X127908571Y-107117619D02*
X127908571Y-106117619D01*
X128527619Y-106593809D02*
X128860952Y-106593809D01*
X129003809Y-107117619D02*
X128527619Y-107117619D01*
X128527619Y-107117619D02*
X128527619Y-106117619D01*
X128527619Y-106117619D02*
X129003809Y-106117619D01*
X130003809Y-107117619D02*
X129670476Y-106641428D01*
X129432381Y-107117619D02*
X129432381Y-106117619D01*
X129432381Y-106117619D02*
X129813333Y-106117619D01*
X129813333Y-106117619D02*
X129908571Y-106165238D01*
X129908571Y-106165238D02*
X129956190Y-106212857D01*
X129956190Y-106212857D02*
X130003809Y-106308095D01*
X130003809Y-106308095D02*
X130003809Y-106450952D01*
X130003809Y-106450952D02*
X129956190Y-106546190D01*
X129956190Y-106546190D02*
X129908571Y-106593809D01*
X129908571Y-106593809D02*
X129813333Y-106641428D01*
X129813333Y-106641428D02*
X129432381Y-106641428D01*
X130622857Y-106641428D02*
X130622857Y-107117619D01*
X130289524Y-106117619D02*
X130622857Y-106641428D01*
X130622857Y-106641428D02*
X130956190Y-106117619D01*
D10*
X125852381Y-93804819D02*
X126423809Y-93804819D01*
X126138095Y-94804819D02*
X126138095Y-93804819D01*
X127328571Y-94804819D02*
X126995238Y-94328628D01*
X126757143Y-94804819D02*
X126757143Y-93804819D01*
X126757143Y-93804819D02*
X127138095Y-93804819D01*
X127138095Y-93804819D02*
X127233333Y-93852438D01*
X127233333Y-93852438D02*
X127280952Y-93900057D01*
X127280952Y-93900057D02*
X127328571Y-93995295D01*
X127328571Y-93995295D02*
X127328571Y-94138152D01*
X127328571Y-94138152D02*
X127280952Y-94233390D01*
X127280952Y-94233390D02*
X127233333Y-94281009D01*
X127233333Y-94281009D02*
X127138095Y-94328628D01*
X127138095Y-94328628D02*
X126757143Y-94328628D01*
X127709524Y-94519104D02*
X128185714Y-94519104D01*
X127614286Y-94804819D02*
X127947619Y-93804819D01*
X127947619Y-93804819D02*
X128280952Y-94804819D01*
X128614286Y-94804819D02*
X128614286Y-93804819D01*
X128614286Y-93804819D02*
X129185714Y-94804819D01*
X129185714Y-94804819D02*
X129185714Y-93804819D01*
X129614286Y-94757200D02*
X129757143Y-94804819D01*
X129757143Y-94804819D02*
X129995238Y-94804819D01*
X129995238Y-94804819D02*
X130090476Y-94757200D01*
X130090476Y-94757200D02*
X130138095Y-94709580D01*
X130138095Y-94709580D02*
X130185714Y-94614342D01*
X130185714Y-94614342D02*
X130185714Y-94519104D01*
X130185714Y-94519104D02*
X130138095Y-94423866D01*
X130138095Y-94423866D02*
X130090476Y-94376247D01*
X130090476Y-94376247D02*
X129995238Y-94328628D01*
X129995238Y-94328628D02*
X129804762Y-94281009D01*
X129804762Y-94281009D02*
X129709524Y-94233390D01*
X129709524Y-94233390D02*
X129661905Y-94185771D01*
X129661905Y-94185771D02*
X129614286Y-94090533D01*
X129614286Y-94090533D02*
X129614286Y-93995295D01*
X129614286Y-93995295D02*
X129661905Y-93900057D01*
X129661905Y-93900057D02*
X129709524Y-93852438D01*
X129709524Y-93852438D02*
X129804762Y-93804819D01*
X129804762Y-93804819D02*
X130042857Y-93804819D01*
X130042857Y-93804819D02*
X130185714Y-93852438D01*
X130614286Y-94804819D02*
X130614286Y-93804819D01*
X130614286Y-93804819D02*
X130947619Y-94519104D01*
X130947619Y-94519104D02*
X131280952Y-93804819D01*
X131280952Y-93804819D02*
X131280952Y-94804819D01*
X131757143Y-94804819D02*
X131757143Y-93804819D01*
X132090476Y-93804819D02*
X132661904Y-93804819D01*
X132376190Y-94804819D02*
X132376190Y-93804819D01*
X132852381Y-93804819D02*
X133423809Y-93804819D01*
X133138095Y-94804819D02*
X133138095Y-93804819D01*
X133757143Y-94804819D02*
X133757143Y-93804819D01*
X134233333Y-94804819D02*
X134233333Y-93804819D01*
X134233333Y-93804819D02*
X134804761Y-94804819D01*
X134804761Y-94804819D02*
X134804761Y-93804819D01*
X135804761Y-93852438D02*
X135709523Y-93804819D01*
X135709523Y-93804819D02*
X135566666Y-93804819D01*
X135566666Y-93804819D02*
X135423809Y-93852438D01*
X135423809Y-93852438D02*
X135328571Y-93947676D01*
X135328571Y-93947676D02*
X135280952Y-94042914D01*
X135280952Y-94042914D02*
X135233333Y-94233390D01*
X135233333Y-94233390D02*
X135233333Y-94376247D01*
X135233333Y-94376247D02*
X135280952Y-94566723D01*
X135280952Y-94566723D02*
X135328571Y-94661961D01*
X135328571Y-94661961D02*
X135423809Y-94757200D01*
X135423809Y-94757200D02*
X135566666Y-94804819D01*
X135566666Y-94804819D02*
X135661904Y-94804819D01*
X135661904Y-94804819D02*
X135804761Y-94757200D01*
X135804761Y-94757200D02*
X135852380Y-94709580D01*
X135852380Y-94709580D02*
X135852380Y-94376247D01*
X135852380Y-94376247D02*
X135661904Y-94376247D01*
D14*
X129147419Y-56681904D02*
X129956942Y-56681904D01*
X129956942Y-56681904D02*
X130052180Y-56634285D01*
X130052180Y-56634285D02*
X130099800Y-56586666D01*
X130099800Y-56586666D02*
X130147419Y-56491428D01*
X130147419Y-56491428D02*
X130147419Y-56300952D01*
X130147419Y-56300952D02*
X130099800Y-56205714D01*
X130099800Y-56205714D02*
X130052180Y-56158095D01*
X130052180Y-56158095D02*
X129956942Y-56110476D01*
X129956942Y-56110476D02*
X129147419Y-56110476D01*
X129242657Y-55681904D02*
X129195038Y-55634285D01*
X129195038Y-55634285D02*
X129147419Y-55539047D01*
X129147419Y-55539047D02*
X129147419Y-55300952D01*
X129147419Y-55300952D02*
X129195038Y-55205714D01*
X129195038Y-55205714D02*
X129242657Y-55158095D01*
X129242657Y-55158095D02*
X129337895Y-55110476D01*
X129337895Y-55110476D02*
X129433133Y-55110476D01*
X129433133Y-55110476D02*
X129575990Y-55158095D01*
X129575990Y-55158095D02*
X130147419Y-55729523D01*
X130147419Y-55729523D02*
X130147419Y-55110476D01*
D10*
X154543819Y-139525666D02*
X154067628Y-139858999D01*
X154543819Y-140097094D02*
X153543819Y-140097094D01*
X153543819Y-140097094D02*
X153543819Y-139716142D01*
X153543819Y-139716142D02*
X153591438Y-139620904D01*
X153591438Y-139620904D02*
X153639057Y-139573285D01*
X153639057Y-139573285D02*
X153734295Y-139525666D01*
X153734295Y-139525666D02*
X153877152Y-139525666D01*
X153877152Y-139525666D02*
X153972390Y-139573285D01*
X153972390Y-139573285D02*
X154020009Y-139620904D01*
X154020009Y-139620904D02*
X154067628Y-139716142D01*
X154067628Y-139716142D02*
X154067628Y-140097094D01*
X154543819Y-139049475D02*
X154543819Y-138858999D01*
X154543819Y-138858999D02*
X154496200Y-138763761D01*
X154496200Y-138763761D02*
X154448580Y-138716142D01*
X154448580Y-138716142D02*
X154305723Y-138620904D01*
X154305723Y-138620904D02*
X154115247Y-138573285D01*
X154115247Y-138573285D02*
X153734295Y-138573285D01*
X153734295Y-138573285D02*
X153639057Y-138620904D01*
X153639057Y-138620904D02*
X153591438Y-138668523D01*
X153591438Y-138668523D02*
X153543819Y-138763761D01*
X153543819Y-138763761D02*
X153543819Y-138954237D01*
X153543819Y-138954237D02*
X153591438Y-139049475D01*
X153591438Y-139049475D02*
X153639057Y-139097094D01*
X153639057Y-139097094D02*
X153734295Y-139144713D01*
X153734295Y-139144713D02*
X153972390Y-139144713D01*
X153972390Y-139144713D02*
X154067628Y-139097094D01*
X154067628Y-139097094D02*
X154115247Y-139049475D01*
X154115247Y-139049475D02*
X154162866Y-138954237D01*
X154162866Y-138954237D02*
X154162866Y-138763761D01*
X154162866Y-138763761D02*
X154115247Y-138668523D01*
X154115247Y-138668523D02*
X154067628Y-138620904D01*
X154067628Y-138620904D02*
X153972390Y-138573285D01*
X136381333Y-143862819D02*
X136048000Y-143386628D01*
X135809905Y-143862819D02*
X135809905Y-142862819D01*
X135809905Y-142862819D02*
X136190857Y-142862819D01*
X136190857Y-142862819D02*
X136286095Y-142910438D01*
X136286095Y-142910438D02*
X136333714Y-142958057D01*
X136333714Y-142958057D02*
X136381333Y-143053295D01*
X136381333Y-143053295D02*
X136381333Y-143196152D01*
X136381333Y-143196152D02*
X136333714Y-143291390D01*
X136333714Y-143291390D02*
X136286095Y-143339009D01*
X136286095Y-143339009D02*
X136190857Y-143386628D01*
X136190857Y-143386628D02*
X135809905Y-143386628D01*
X137238476Y-143196152D02*
X137238476Y-143862819D01*
X137000381Y-142815200D02*
X136762286Y-143529485D01*
X136762286Y-143529485D02*
X137381333Y-143529485D01*
X145504819Y-71766666D02*
X145028628Y-72099999D01*
X145504819Y-72338094D02*
X144504819Y-72338094D01*
X144504819Y-72338094D02*
X144504819Y-71957142D01*
X144504819Y-71957142D02*
X144552438Y-71861904D01*
X144552438Y-71861904D02*
X144600057Y-71814285D01*
X144600057Y-71814285D02*
X144695295Y-71766666D01*
X144695295Y-71766666D02*
X144838152Y-71766666D01*
X144838152Y-71766666D02*
X144933390Y-71814285D01*
X144933390Y-71814285D02*
X144981009Y-71861904D01*
X144981009Y-71861904D02*
X145028628Y-71957142D01*
X145028628Y-71957142D02*
X145028628Y-72338094D01*
X144933390Y-71195237D02*
X144885771Y-71290475D01*
X144885771Y-71290475D02*
X144838152Y-71338094D01*
X144838152Y-71338094D02*
X144742914Y-71385713D01*
X144742914Y-71385713D02*
X144695295Y-71385713D01*
X144695295Y-71385713D02*
X144600057Y-71338094D01*
X144600057Y-71338094D02*
X144552438Y-71290475D01*
X144552438Y-71290475D02*
X144504819Y-71195237D01*
X144504819Y-71195237D02*
X144504819Y-71004761D01*
X144504819Y-71004761D02*
X144552438Y-70909523D01*
X144552438Y-70909523D02*
X144600057Y-70861904D01*
X144600057Y-70861904D02*
X144695295Y-70814285D01*
X144695295Y-70814285D02*
X144742914Y-70814285D01*
X144742914Y-70814285D02*
X144838152Y-70861904D01*
X144838152Y-70861904D02*
X144885771Y-70909523D01*
X144885771Y-70909523D02*
X144933390Y-71004761D01*
X144933390Y-71004761D02*
X144933390Y-71195237D01*
X144933390Y-71195237D02*
X144981009Y-71290475D01*
X144981009Y-71290475D02*
X145028628Y-71338094D01*
X145028628Y-71338094D02*
X145123866Y-71385713D01*
X145123866Y-71385713D02*
X145314342Y-71385713D01*
X145314342Y-71385713D02*
X145409580Y-71338094D01*
X145409580Y-71338094D02*
X145457200Y-71290475D01*
X145457200Y-71290475D02*
X145504819Y-71195237D01*
X145504819Y-71195237D02*
X145504819Y-71004761D01*
X145504819Y-71004761D02*
X145457200Y-70909523D01*
X145457200Y-70909523D02*
X145409580Y-70861904D01*
X145409580Y-70861904D02*
X145314342Y-70814285D01*
X145314342Y-70814285D02*
X145123866Y-70814285D01*
X145123866Y-70814285D02*
X145028628Y-70861904D01*
X145028628Y-70861904D02*
X144981009Y-70909523D01*
X144981009Y-70909523D02*
X144933390Y-71004761D01*
X144988819Y-140001857D02*
X144512628Y-140335190D01*
X144988819Y-140573285D02*
X143988819Y-140573285D01*
X143988819Y-140573285D02*
X143988819Y-140192333D01*
X143988819Y-140192333D02*
X144036438Y-140097095D01*
X144036438Y-140097095D02*
X144084057Y-140049476D01*
X144084057Y-140049476D02*
X144179295Y-140001857D01*
X144179295Y-140001857D02*
X144322152Y-140001857D01*
X144322152Y-140001857D02*
X144417390Y-140049476D01*
X144417390Y-140049476D02*
X144465009Y-140097095D01*
X144465009Y-140097095D02*
X144512628Y-140192333D01*
X144512628Y-140192333D02*
X144512628Y-140573285D01*
X144988819Y-139049476D02*
X144988819Y-139620904D01*
X144988819Y-139335190D02*
X143988819Y-139335190D01*
X143988819Y-139335190D02*
X144131676Y-139430428D01*
X144131676Y-139430428D02*
X144226914Y-139525666D01*
X144226914Y-139525666D02*
X144274533Y-139620904D01*
X143988819Y-138430428D02*
X143988819Y-138335190D01*
X143988819Y-138335190D02*
X144036438Y-138239952D01*
X144036438Y-138239952D02*
X144084057Y-138192333D01*
X144084057Y-138192333D02*
X144179295Y-138144714D01*
X144179295Y-138144714D02*
X144369771Y-138097095D01*
X144369771Y-138097095D02*
X144607866Y-138097095D01*
X144607866Y-138097095D02*
X144798342Y-138144714D01*
X144798342Y-138144714D02*
X144893580Y-138192333D01*
X144893580Y-138192333D02*
X144941200Y-138239952D01*
X144941200Y-138239952D02*
X144988819Y-138335190D01*
X144988819Y-138335190D02*
X144988819Y-138430428D01*
X144988819Y-138430428D02*
X144941200Y-138525666D01*
X144941200Y-138525666D02*
X144893580Y-138573285D01*
X144893580Y-138573285D02*
X144798342Y-138620904D01*
X144798342Y-138620904D02*
X144607866Y-138668523D01*
X144607866Y-138668523D02*
X144369771Y-138668523D01*
X144369771Y-138668523D02*
X144179295Y-138620904D01*
X144179295Y-138620904D02*
X144084057Y-138573285D01*
X144084057Y-138573285D02*
X144036438Y-138525666D01*
X144036438Y-138525666D02*
X143988819Y-138430428D01*
X133913333Y-76572819D02*
X133580000Y-76096628D01*
X133341905Y-76572819D02*
X133341905Y-75572819D01*
X133341905Y-75572819D02*
X133722857Y-75572819D01*
X133722857Y-75572819D02*
X133818095Y-75620438D01*
X133818095Y-75620438D02*
X133865714Y-75668057D01*
X133865714Y-75668057D02*
X133913333Y-75763295D01*
X133913333Y-75763295D02*
X133913333Y-75906152D01*
X133913333Y-75906152D02*
X133865714Y-76001390D01*
X133865714Y-76001390D02*
X133818095Y-76049009D01*
X133818095Y-76049009D02*
X133722857Y-76096628D01*
X133722857Y-76096628D02*
X133341905Y-76096628D01*
X134246667Y-75572819D02*
X134913333Y-75572819D01*
X134913333Y-75572819D02*
X134484762Y-76572819D01*
X133609580Y-70818666D02*
X133657200Y-70866285D01*
X133657200Y-70866285D02*
X133704819Y-71009142D01*
X133704819Y-71009142D02*
X133704819Y-71104380D01*
X133704819Y-71104380D02*
X133657200Y-71247237D01*
X133657200Y-71247237D02*
X133561961Y-71342475D01*
X133561961Y-71342475D02*
X133466723Y-71390094D01*
X133466723Y-71390094D02*
X133276247Y-71437713D01*
X133276247Y-71437713D02*
X133133390Y-71437713D01*
X133133390Y-71437713D02*
X132942914Y-71390094D01*
X132942914Y-71390094D02*
X132847676Y-71342475D01*
X132847676Y-71342475D02*
X132752438Y-71247237D01*
X132752438Y-71247237D02*
X132704819Y-71104380D01*
X132704819Y-71104380D02*
X132704819Y-71009142D01*
X132704819Y-71009142D02*
X132752438Y-70866285D01*
X132752438Y-70866285D02*
X132800057Y-70818666D01*
X133704819Y-69866285D02*
X133704819Y-70437713D01*
X133704819Y-70151999D02*
X132704819Y-70151999D01*
X132704819Y-70151999D02*
X132847676Y-70247237D01*
X132847676Y-70247237D02*
X132942914Y-70342475D01*
X132942914Y-70342475D02*
X132990533Y-70437713D01*
X126011904Y-109104819D02*
X125440476Y-109104819D01*
X125726190Y-109104819D02*
X125726190Y-108104819D01*
X125726190Y-108104819D02*
X125630952Y-108247676D01*
X125630952Y-108247676D02*
X125535714Y-108342914D01*
X125535714Y-108342914D02*
X125440476Y-108390533D01*
X126630952Y-108104819D02*
X126726190Y-108104819D01*
X126726190Y-108104819D02*
X126821428Y-108152438D01*
X126821428Y-108152438D02*
X126869047Y-108200057D01*
X126869047Y-108200057D02*
X126916666Y-108295295D01*
X126916666Y-108295295D02*
X126964285Y-108485771D01*
X126964285Y-108485771D02*
X126964285Y-108723866D01*
X126964285Y-108723866D02*
X126916666Y-108914342D01*
X126916666Y-108914342D02*
X126869047Y-109009580D01*
X126869047Y-109009580D02*
X126821428Y-109057200D01*
X126821428Y-109057200D02*
X126726190Y-109104819D01*
X126726190Y-109104819D02*
X126630952Y-109104819D01*
X126630952Y-109104819D02*
X126535714Y-109057200D01*
X126535714Y-109057200D02*
X126488095Y-109009580D01*
X126488095Y-109009580D02*
X126440476Y-108914342D01*
X126440476Y-108914342D02*
X126392857Y-108723866D01*
X126392857Y-108723866D02*
X126392857Y-108485771D01*
X126392857Y-108485771D02*
X126440476Y-108295295D01*
X126440476Y-108295295D02*
X126488095Y-108200057D01*
X126488095Y-108200057D02*
X126535714Y-108152438D01*
X126535714Y-108152438D02*
X126630952Y-108104819D01*
X127583333Y-108104819D02*
X127678571Y-108104819D01*
X127678571Y-108104819D02*
X127773809Y-108152438D01*
X127773809Y-108152438D02*
X127821428Y-108200057D01*
X127821428Y-108200057D02*
X127869047Y-108295295D01*
X127869047Y-108295295D02*
X127916666Y-108485771D01*
X127916666Y-108485771D02*
X127916666Y-108723866D01*
X127916666Y-108723866D02*
X127869047Y-108914342D01*
X127869047Y-108914342D02*
X127821428Y-109009580D01*
X127821428Y-109009580D02*
X127773809Y-109057200D01*
X127773809Y-109057200D02*
X127678571Y-109104819D01*
X127678571Y-109104819D02*
X127583333Y-109104819D01*
X127583333Y-109104819D02*
X127488095Y-109057200D01*
X127488095Y-109057200D02*
X127440476Y-109009580D01*
X127440476Y-109009580D02*
X127392857Y-108914342D01*
X127392857Y-108914342D02*
X127345238Y-108723866D01*
X127345238Y-108723866D02*
X127345238Y-108485771D01*
X127345238Y-108485771D02*
X127392857Y-108295295D01*
X127392857Y-108295295D02*
X127440476Y-108200057D01*
X127440476Y-108200057D02*
X127488095Y-108152438D01*
X127488095Y-108152438D02*
X127583333Y-108104819D01*
X128297619Y-109104819D02*
X129059523Y-108104819D01*
X128440476Y-108104819D02*
X128535714Y-108152438D01*
X128535714Y-108152438D02*
X128583333Y-108247676D01*
X128583333Y-108247676D02*
X128535714Y-108342914D01*
X128535714Y-108342914D02*
X128440476Y-108390533D01*
X128440476Y-108390533D02*
X128345238Y-108342914D01*
X128345238Y-108342914D02*
X128297619Y-108247676D01*
X128297619Y-108247676D02*
X128345238Y-108152438D01*
X128345238Y-108152438D02*
X128440476Y-108104819D01*
X129011904Y-109057200D02*
X129059523Y-108961961D01*
X129059523Y-108961961D02*
X129011904Y-108866723D01*
X129011904Y-108866723D02*
X128916666Y-108819104D01*
X128916666Y-108819104D02*
X128821428Y-108866723D01*
X128821428Y-108866723D02*
X128773809Y-108961961D01*
X128773809Y-108961961D02*
X128821428Y-109057200D01*
X128821428Y-109057200D02*
X128916666Y-109104819D01*
X128916666Y-109104819D02*
X129011904Y-109057200D01*
X147896819Y-107688333D02*
X148611104Y-107688333D01*
X148611104Y-107688333D02*
X148753961Y-107735952D01*
X148753961Y-107735952D02*
X148849200Y-107831190D01*
X148849200Y-107831190D02*
X148896819Y-107974047D01*
X148896819Y-107974047D02*
X148896819Y-108069285D01*
X148896819Y-106688333D02*
X148896819Y-107259761D01*
X148896819Y-106974047D02*
X147896819Y-106974047D01*
X147896819Y-106974047D02*
X148039676Y-107069285D01*
X148039676Y-107069285D02*
X148134914Y-107164523D01*
X148134914Y-107164523D02*
X148182533Y-107259761D01*
X136423333Y-113001819D02*
X136090000Y-112525628D01*
X135851905Y-113001819D02*
X135851905Y-112001819D01*
X135851905Y-112001819D02*
X136232857Y-112001819D01*
X136232857Y-112001819D02*
X136328095Y-112049438D01*
X136328095Y-112049438D02*
X136375714Y-112097057D01*
X136375714Y-112097057D02*
X136423333Y-112192295D01*
X136423333Y-112192295D02*
X136423333Y-112335152D01*
X136423333Y-112335152D02*
X136375714Y-112430390D01*
X136375714Y-112430390D02*
X136328095Y-112478009D01*
X136328095Y-112478009D02*
X136232857Y-112525628D01*
X136232857Y-112525628D02*
X135851905Y-112525628D01*
X137375714Y-113001819D02*
X136804286Y-113001819D01*
X137090000Y-113001819D02*
X137090000Y-112001819D01*
X137090000Y-112001819D02*
X136994762Y-112144676D01*
X136994762Y-112144676D02*
X136899524Y-112239914D01*
X136899524Y-112239914D02*
X136804286Y-112287533D01*
X126959580Y-71545238D02*
X127007200Y-71592857D01*
X127007200Y-71592857D02*
X127054819Y-71735714D01*
X127054819Y-71735714D02*
X127054819Y-71830952D01*
X127054819Y-71830952D02*
X127007200Y-71973809D01*
X127007200Y-71973809D02*
X126911961Y-72069047D01*
X126911961Y-72069047D02*
X126816723Y-72116666D01*
X126816723Y-72116666D02*
X126626247Y-72164285D01*
X126626247Y-72164285D02*
X126483390Y-72164285D01*
X126483390Y-72164285D02*
X126292914Y-72116666D01*
X126292914Y-72116666D02*
X126197676Y-72069047D01*
X126197676Y-72069047D02*
X126102438Y-71973809D01*
X126102438Y-71973809D02*
X126054819Y-71830952D01*
X126054819Y-71830952D02*
X126054819Y-71735714D01*
X126054819Y-71735714D02*
X126102438Y-71592857D01*
X126102438Y-71592857D02*
X126150057Y-71545238D01*
X126054819Y-71259523D02*
X127054819Y-70926190D01*
X127054819Y-70926190D02*
X126054819Y-70592857D01*
X127054819Y-69735714D02*
X127054819Y-70307142D01*
X127054819Y-70021428D02*
X126054819Y-70021428D01*
X126054819Y-70021428D02*
X126197676Y-70116666D01*
X126197676Y-70116666D02*
X126292914Y-70211904D01*
X126292914Y-70211904D02*
X126340533Y-70307142D01*
X157783333Y-132654819D02*
X157973809Y-132654819D01*
X157973809Y-132654819D02*
X158069047Y-132702438D01*
X158069047Y-132702438D02*
X158164285Y-132797676D01*
X158164285Y-132797676D02*
X158211904Y-132988152D01*
X158211904Y-132988152D02*
X158211904Y-133321485D01*
X158211904Y-133321485D02*
X158164285Y-133511961D01*
X158164285Y-133511961D02*
X158069047Y-133607200D01*
X158069047Y-133607200D02*
X157973809Y-133654819D01*
X157973809Y-133654819D02*
X157783333Y-133654819D01*
X157783333Y-133654819D02*
X157688095Y-133607200D01*
X157688095Y-133607200D02*
X157592857Y-133511961D01*
X157592857Y-133511961D02*
X157545238Y-133321485D01*
X157545238Y-133321485D02*
X157545238Y-132988152D01*
X157545238Y-132988152D02*
X157592857Y-132797676D01*
X157592857Y-132797676D02*
X157688095Y-132702438D01*
X157688095Y-132702438D02*
X157783333Y-132654819D01*
X158640476Y-132988152D02*
X158640476Y-133654819D01*
X158640476Y-133083390D02*
X158688095Y-133035771D01*
X158688095Y-133035771D02*
X158783333Y-132988152D01*
X158783333Y-132988152D02*
X158926190Y-132988152D01*
X158926190Y-132988152D02*
X159021428Y-133035771D01*
X159021428Y-133035771D02*
X159069047Y-133131009D01*
X159069047Y-133131009D02*
X159069047Y-133654819D01*
X160259523Y-132607200D02*
X159402381Y-133892914D01*
X160783333Y-132654819D02*
X160973809Y-132654819D01*
X160973809Y-132654819D02*
X161069047Y-132702438D01*
X161069047Y-132702438D02*
X161164285Y-132797676D01*
X161164285Y-132797676D02*
X161211904Y-132988152D01*
X161211904Y-132988152D02*
X161211904Y-133321485D01*
X161211904Y-133321485D02*
X161164285Y-133511961D01*
X161164285Y-133511961D02*
X161069047Y-133607200D01*
X161069047Y-133607200D02*
X160973809Y-133654819D01*
X160973809Y-133654819D02*
X160783333Y-133654819D01*
X160783333Y-133654819D02*
X160688095Y-133607200D01*
X160688095Y-133607200D02*
X160592857Y-133511961D01*
X160592857Y-133511961D02*
X160545238Y-133321485D01*
X160545238Y-133321485D02*
X160545238Y-132988152D01*
X160545238Y-132988152D02*
X160592857Y-132797676D01*
X160592857Y-132797676D02*
X160688095Y-132702438D01*
X160688095Y-132702438D02*
X160783333Y-132654819D01*
X161497619Y-132988152D02*
X161878571Y-132988152D01*
X161640476Y-133654819D02*
X161640476Y-132797676D01*
X161640476Y-132797676D02*
X161688095Y-132702438D01*
X161688095Y-132702438D02*
X161783333Y-132654819D01*
X161783333Y-132654819D02*
X161878571Y-132654819D01*
X162069048Y-132988152D02*
X162450000Y-132988152D01*
X162211905Y-133654819D02*
X162211905Y-132797676D01*
X162211905Y-132797676D02*
X162259524Y-132702438D01*
X162259524Y-132702438D02*
X162354762Y-132654819D01*
X162354762Y-132654819D02*
X162450000Y-132654819D01*
X127119819Y-86106238D02*
X126643628Y-86439571D01*
X127119819Y-86677666D02*
X126119819Y-86677666D01*
X126119819Y-86677666D02*
X126119819Y-86296714D01*
X126119819Y-86296714D02*
X126167438Y-86201476D01*
X126167438Y-86201476D02*
X126215057Y-86153857D01*
X126215057Y-86153857D02*
X126310295Y-86106238D01*
X126310295Y-86106238D02*
X126453152Y-86106238D01*
X126453152Y-86106238D02*
X126548390Y-86153857D01*
X126548390Y-86153857D02*
X126596009Y-86201476D01*
X126596009Y-86201476D02*
X126643628Y-86296714D01*
X126643628Y-86296714D02*
X126643628Y-86677666D01*
X126119819Y-85820523D02*
X127119819Y-85487190D01*
X127119819Y-85487190D02*
X126119819Y-85153857D01*
X127119819Y-84296714D02*
X127119819Y-84868142D01*
X127119819Y-84582428D02*
X126119819Y-84582428D01*
X126119819Y-84582428D02*
X126262676Y-84677666D01*
X126262676Y-84677666D02*
X126357914Y-84772904D01*
X126357914Y-84772904D02*
X126405533Y-84868142D01*
X136423333Y-99702819D02*
X136090000Y-99226628D01*
X135851905Y-99702819D02*
X135851905Y-98702819D01*
X135851905Y-98702819D02*
X136232857Y-98702819D01*
X136232857Y-98702819D02*
X136328095Y-98750438D01*
X136328095Y-98750438D02*
X136375714Y-98798057D01*
X136375714Y-98798057D02*
X136423333Y-98893295D01*
X136423333Y-98893295D02*
X136423333Y-99036152D01*
X136423333Y-99036152D02*
X136375714Y-99131390D01*
X136375714Y-99131390D02*
X136328095Y-99179009D01*
X136328095Y-99179009D02*
X136232857Y-99226628D01*
X136232857Y-99226628D02*
X135851905Y-99226628D01*
X137328095Y-98702819D02*
X136851905Y-98702819D01*
X136851905Y-98702819D02*
X136804286Y-99179009D01*
X136804286Y-99179009D02*
X136851905Y-99131390D01*
X136851905Y-99131390D02*
X136947143Y-99083771D01*
X136947143Y-99083771D02*
X137185238Y-99083771D01*
X137185238Y-99083771D02*
X137280476Y-99131390D01*
X137280476Y-99131390D02*
X137328095Y-99179009D01*
X137328095Y-99179009D02*
X137375714Y-99274247D01*
X137375714Y-99274247D02*
X137375714Y-99512342D01*
X137375714Y-99512342D02*
X137328095Y-99607580D01*
X137328095Y-99607580D02*
X137280476Y-99655200D01*
X137280476Y-99655200D02*
X137185238Y-99702819D01*
X137185238Y-99702819D02*
X136947143Y-99702819D01*
X136947143Y-99702819D02*
X136851905Y-99655200D01*
X136851905Y-99655200D02*
X136804286Y-99607580D01*
X125519048Y-118254819D02*
X126185714Y-118254819D01*
X126185714Y-118254819D02*
X125757143Y-119254819D01*
X127042857Y-118254819D02*
X126566667Y-118254819D01*
X126566667Y-118254819D02*
X126519048Y-118731009D01*
X126519048Y-118731009D02*
X126566667Y-118683390D01*
X126566667Y-118683390D02*
X126661905Y-118635771D01*
X126661905Y-118635771D02*
X126900000Y-118635771D01*
X126900000Y-118635771D02*
X126995238Y-118683390D01*
X126995238Y-118683390D02*
X127042857Y-118731009D01*
X127042857Y-118731009D02*
X127090476Y-118826247D01*
X127090476Y-118826247D02*
X127090476Y-119064342D01*
X127090476Y-119064342D02*
X127042857Y-119159580D01*
X127042857Y-119159580D02*
X126995238Y-119207200D01*
X126995238Y-119207200D02*
X126900000Y-119254819D01*
X126900000Y-119254819D02*
X126661905Y-119254819D01*
X126661905Y-119254819D02*
X126566667Y-119207200D01*
X126566667Y-119207200D02*
X126519048Y-119159580D01*
X127471429Y-119254819D02*
X128233333Y-118254819D01*
X127614286Y-118254819D02*
X127709524Y-118302438D01*
X127709524Y-118302438D02*
X127757143Y-118397676D01*
X127757143Y-118397676D02*
X127709524Y-118492914D01*
X127709524Y-118492914D02*
X127614286Y-118540533D01*
X127614286Y-118540533D02*
X127519048Y-118492914D01*
X127519048Y-118492914D02*
X127471429Y-118397676D01*
X127471429Y-118397676D02*
X127519048Y-118302438D01*
X127519048Y-118302438D02*
X127614286Y-118254819D01*
X128185714Y-119207200D02*
X128233333Y-119111961D01*
X128233333Y-119111961D02*
X128185714Y-119016723D01*
X128185714Y-119016723D02*
X128090476Y-118969104D01*
X128090476Y-118969104D02*
X127995238Y-119016723D01*
X127995238Y-119016723D02*
X127947619Y-119111961D01*
X127947619Y-119111961D02*
X127995238Y-119207200D01*
X127995238Y-119207200D02*
X128090476Y-119254819D01*
X128090476Y-119254819D02*
X128185714Y-119207200D01*
X124919047Y-127504819D02*
X124585714Y-127028628D01*
X124347619Y-127504819D02*
X124347619Y-126504819D01*
X124347619Y-126504819D02*
X124728571Y-126504819D01*
X124728571Y-126504819D02*
X124823809Y-126552438D01*
X124823809Y-126552438D02*
X124871428Y-126600057D01*
X124871428Y-126600057D02*
X124919047Y-126695295D01*
X124919047Y-126695295D02*
X124919047Y-126838152D01*
X124919047Y-126838152D02*
X124871428Y-126933390D01*
X124871428Y-126933390D02*
X124823809Y-126981009D01*
X124823809Y-126981009D02*
X124728571Y-127028628D01*
X124728571Y-127028628D02*
X124347619Y-127028628D01*
X125347619Y-126981009D02*
X125680952Y-126981009D01*
X125823809Y-127504819D02*
X125347619Y-127504819D01*
X125347619Y-127504819D02*
X125347619Y-126504819D01*
X125347619Y-126504819D02*
X125823809Y-126504819D01*
X126252381Y-127504819D02*
X126252381Y-126504819D01*
X126252381Y-126504819D02*
X126490476Y-126504819D01*
X126490476Y-126504819D02*
X126633333Y-126552438D01*
X126633333Y-126552438D02*
X126728571Y-126647676D01*
X126728571Y-126647676D02*
X126776190Y-126742914D01*
X126776190Y-126742914D02*
X126823809Y-126933390D01*
X126823809Y-126933390D02*
X126823809Y-127076247D01*
X126823809Y-127076247D02*
X126776190Y-127266723D01*
X126776190Y-127266723D02*
X126728571Y-127361961D01*
X126728571Y-127361961D02*
X126633333Y-127457200D01*
X126633333Y-127457200D02*
X126490476Y-127504819D01*
X126490476Y-127504819D02*
X126252381Y-127504819D01*
X127014286Y-127600057D02*
X127776190Y-127600057D01*
X128490476Y-127504819D02*
X128014286Y-127504819D01*
X128014286Y-127504819D02*
X128014286Y-126504819D01*
X128823810Y-126981009D02*
X129157143Y-126981009D01*
X129300000Y-127504819D02*
X128823810Y-127504819D01*
X128823810Y-127504819D02*
X128823810Y-126504819D01*
X128823810Y-126504819D02*
X129300000Y-126504819D01*
X129728572Y-127504819D02*
X129728572Y-126504819D01*
X129728572Y-126504819D02*
X129966667Y-126504819D01*
X129966667Y-126504819D02*
X130109524Y-126552438D01*
X130109524Y-126552438D02*
X130204762Y-126647676D01*
X130204762Y-126647676D02*
X130252381Y-126742914D01*
X130252381Y-126742914D02*
X130300000Y-126933390D01*
X130300000Y-126933390D02*
X130300000Y-127076247D01*
X130300000Y-127076247D02*
X130252381Y-127266723D01*
X130252381Y-127266723D02*
X130204762Y-127361961D01*
X130204762Y-127361961D02*
X130109524Y-127457200D01*
X130109524Y-127457200D02*
X129966667Y-127504819D01*
X129966667Y-127504819D02*
X129728572Y-127504819D01*
X136381333Y-123161819D02*
X136048000Y-122685628D01*
X135809905Y-123161819D02*
X135809905Y-122161819D01*
X135809905Y-122161819D02*
X136190857Y-122161819D01*
X136190857Y-122161819D02*
X136286095Y-122209438D01*
X136286095Y-122209438D02*
X136333714Y-122257057D01*
X136333714Y-122257057D02*
X136381333Y-122352295D01*
X136381333Y-122352295D02*
X136381333Y-122495152D01*
X136381333Y-122495152D02*
X136333714Y-122590390D01*
X136333714Y-122590390D02*
X136286095Y-122638009D01*
X136286095Y-122638009D02*
X136190857Y-122685628D01*
X136190857Y-122685628D02*
X135809905Y-122685628D01*
X136762286Y-122257057D02*
X136809905Y-122209438D01*
X136809905Y-122209438D02*
X136905143Y-122161819D01*
X136905143Y-122161819D02*
X137143238Y-122161819D01*
X137143238Y-122161819D02*
X137238476Y-122209438D01*
X137238476Y-122209438D02*
X137286095Y-122257057D01*
X137286095Y-122257057D02*
X137333714Y-122352295D01*
X137333714Y-122352295D02*
X137333714Y-122447533D01*
X137333714Y-122447533D02*
X137286095Y-122590390D01*
X137286095Y-122590390D02*
X136714667Y-123161819D01*
X136714667Y-123161819D02*
X137333714Y-123161819D01*
X144754761Y-80200057D02*
X144659523Y-80152438D01*
X144659523Y-80152438D02*
X144564285Y-80057200D01*
X144564285Y-80057200D02*
X144421428Y-79914342D01*
X144421428Y-79914342D02*
X144326190Y-79866723D01*
X144326190Y-79866723D02*
X144230952Y-79866723D01*
X144278571Y-80104819D02*
X144183333Y-80057200D01*
X144183333Y-80057200D02*
X144088095Y-79961961D01*
X144088095Y-79961961D02*
X144040476Y-79771485D01*
X144040476Y-79771485D02*
X144040476Y-79438152D01*
X144040476Y-79438152D02*
X144088095Y-79247676D01*
X144088095Y-79247676D02*
X144183333Y-79152438D01*
X144183333Y-79152438D02*
X144278571Y-79104819D01*
X144278571Y-79104819D02*
X144469047Y-79104819D01*
X144469047Y-79104819D02*
X144564285Y-79152438D01*
X144564285Y-79152438D02*
X144659523Y-79247676D01*
X144659523Y-79247676D02*
X144707142Y-79438152D01*
X144707142Y-79438152D02*
X144707142Y-79771485D01*
X144707142Y-79771485D02*
X144659523Y-79961961D01*
X144659523Y-79961961D02*
X144564285Y-80057200D01*
X144564285Y-80057200D02*
X144469047Y-80104819D01*
X144469047Y-80104819D02*
X144278571Y-80104819D01*
X145659523Y-80104819D02*
X145088095Y-80104819D01*
X145373809Y-80104819D02*
X145373809Y-79104819D01*
X145373809Y-79104819D02*
X145278571Y-79247676D01*
X145278571Y-79247676D02*
X145183333Y-79342914D01*
X145183333Y-79342914D02*
X145088095Y-79390533D01*
X169838095Y-140852438D02*
X169742857Y-140804819D01*
X169742857Y-140804819D02*
X169600000Y-140804819D01*
X169600000Y-140804819D02*
X169457143Y-140852438D01*
X169457143Y-140852438D02*
X169361905Y-140947676D01*
X169361905Y-140947676D02*
X169314286Y-141042914D01*
X169314286Y-141042914D02*
X169266667Y-141233390D01*
X169266667Y-141233390D02*
X169266667Y-141376247D01*
X169266667Y-141376247D02*
X169314286Y-141566723D01*
X169314286Y-141566723D02*
X169361905Y-141661961D01*
X169361905Y-141661961D02*
X169457143Y-141757200D01*
X169457143Y-141757200D02*
X169600000Y-141804819D01*
X169600000Y-141804819D02*
X169695238Y-141804819D01*
X169695238Y-141804819D02*
X169838095Y-141757200D01*
X169838095Y-141757200D02*
X169885714Y-141709580D01*
X169885714Y-141709580D02*
X169885714Y-141376247D01*
X169885714Y-141376247D02*
X169695238Y-141376247D01*
X170314286Y-141804819D02*
X170314286Y-140804819D01*
X170314286Y-140804819D02*
X170885714Y-141804819D01*
X170885714Y-141804819D02*
X170885714Y-140804819D01*
X171361905Y-141804819D02*
X171361905Y-140804819D01*
X171361905Y-140804819D02*
X171600000Y-140804819D01*
X171600000Y-140804819D02*
X171742857Y-140852438D01*
X171742857Y-140852438D02*
X171838095Y-140947676D01*
X171838095Y-140947676D02*
X171885714Y-141042914D01*
X171885714Y-141042914D02*
X171933333Y-141233390D01*
X171933333Y-141233390D02*
X171933333Y-141376247D01*
X171933333Y-141376247D02*
X171885714Y-141566723D01*
X171885714Y-141566723D02*
X171838095Y-141661961D01*
X171838095Y-141661961D02*
X171742857Y-141757200D01*
X171742857Y-141757200D02*
X171600000Y-141804819D01*
X171600000Y-141804819D02*
X171361905Y-141804819D01*
X125940476Y-128954819D02*
X125464286Y-128954819D01*
X125464286Y-128954819D02*
X125416667Y-129431009D01*
X125416667Y-129431009D02*
X125464286Y-129383390D01*
X125464286Y-129383390D02*
X125559524Y-129335771D01*
X125559524Y-129335771D02*
X125797619Y-129335771D01*
X125797619Y-129335771D02*
X125892857Y-129383390D01*
X125892857Y-129383390D02*
X125940476Y-129431009D01*
X125940476Y-129431009D02*
X125988095Y-129526247D01*
X125988095Y-129526247D02*
X125988095Y-129764342D01*
X125988095Y-129764342D02*
X125940476Y-129859580D01*
X125940476Y-129859580D02*
X125892857Y-129907200D01*
X125892857Y-129907200D02*
X125797619Y-129954819D01*
X125797619Y-129954819D02*
X125559524Y-129954819D01*
X125559524Y-129954819D02*
X125464286Y-129907200D01*
X125464286Y-129907200D02*
X125416667Y-129859580D01*
X126607143Y-128954819D02*
X126702381Y-128954819D01*
X126702381Y-128954819D02*
X126797619Y-129002438D01*
X126797619Y-129002438D02*
X126845238Y-129050057D01*
X126845238Y-129050057D02*
X126892857Y-129145295D01*
X126892857Y-129145295D02*
X126940476Y-129335771D01*
X126940476Y-129335771D02*
X126940476Y-129573866D01*
X126940476Y-129573866D02*
X126892857Y-129764342D01*
X126892857Y-129764342D02*
X126845238Y-129859580D01*
X126845238Y-129859580D02*
X126797619Y-129907200D01*
X126797619Y-129907200D02*
X126702381Y-129954819D01*
X126702381Y-129954819D02*
X126607143Y-129954819D01*
X126607143Y-129954819D02*
X126511905Y-129907200D01*
X126511905Y-129907200D02*
X126464286Y-129859580D01*
X126464286Y-129859580D02*
X126416667Y-129764342D01*
X126416667Y-129764342D02*
X126369048Y-129573866D01*
X126369048Y-129573866D02*
X126369048Y-129335771D01*
X126369048Y-129335771D02*
X126416667Y-129145295D01*
X126416667Y-129145295D02*
X126464286Y-129050057D01*
X126464286Y-129050057D02*
X126511905Y-129002438D01*
X126511905Y-129002438D02*
X126607143Y-128954819D01*
X127321429Y-129954819D02*
X128083333Y-128954819D01*
X127464286Y-128954819D02*
X127559524Y-129002438D01*
X127559524Y-129002438D02*
X127607143Y-129097676D01*
X127607143Y-129097676D02*
X127559524Y-129192914D01*
X127559524Y-129192914D02*
X127464286Y-129240533D01*
X127464286Y-129240533D02*
X127369048Y-129192914D01*
X127369048Y-129192914D02*
X127321429Y-129097676D01*
X127321429Y-129097676D02*
X127369048Y-129002438D01*
X127369048Y-129002438D02*
X127464286Y-128954819D01*
X128035714Y-129907200D02*
X128083333Y-129811961D01*
X128083333Y-129811961D02*
X128035714Y-129716723D01*
X128035714Y-129716723D02*
X127940476Y-129669104D01*
X127940476Y-129669104D02*
X127845238Y-129716723D01*
X127845238Y-129716723D02*
X127797619Y-129811961D01*
X127797619Y-129811961D02*
X127845238Y-129907200D01*
X127845238Y-129907200D02*
X127940476Y-129954819D01*
X127940476Y-129954819D02*
X128035714Y-129907200D01*
X158403333Y-112922819D02*
X158070000Y-112446628D01*
X157831905Y-112922819D02*
X157831905Y-111922819D01*
X157831905Y-111922819D02*
X158212857Y-111922819D01*
X158212857Y-111922819D02*
X158308095Y-111970438D01*
X158308095Y-111970438D02*
X158355714Y-112018057D01*
X158355714Y-112018057D02*
X158403333Y-112113295D01*
X158403333Y-112113295D02*
X158403333Y-112256152D01*
X158403333Y-112256152D02*
X158355714Y-112351390D01*
X158355714Y-112351390D02*
X158308095Y-112399009D01*
X158308095Y-112399009D02*
X158212857Y-112446628D01*
X158212857Y-112446628D02*
X157831905Y-112446628D01*
X159260476Y-111922819D02*
X159070000Y-111922819D01*
X159070000Y-111922819D02*
X158974762Y-111970438D01*
X158974762Y-111970438D02*
X158927143Y-112018057D01*
X158927143Y-112018057D02*
X158831905Y-112160914D01*
X158831905Y-112160914D02*
X158784286Y-112351390D01*
X158784286Y-112351390D02*
X158784286Y-112732342D01*
X158784286Y-112732342D02*
X158831905Y-112827580D01*
X158831905Y-112827580D02*
X158879524Y-112875200D01*
X158879524Y-112875200D02*
X158974762Y-112922819D01*
X158974762Y-112922819D02*
X159165238Y-112922819D01*
X159165238Y-112922819D02*
X159260476Y-112875200D01*
X159260476Y-112875200D02*
X159308095Y-112827580D01*
X159308095Y-112827580D02*
X159355714Y-112732342D01*
X159355714Y-112732342D02*
X159355714Y-112494247D01*
X159355714Y-112494247D02*
X159308095Y-112399009D01*
X159308095Y-112399009D02*
X159260476Y-112351390D01*
X159260476Y-112351390D02*
X159165238Y-112303771D01*
X159165238Y-112303771D02*
X158974762Y-112303771D01*
X158974762Y-112303771D02*
X158879524Y-112351390D01*
X158879524Y-112351390D02*
X158831905Y-112399009D01*
X158831905Y-112399009D02*
X158784286Y-112494247D01*
X138814104Y-71216666D02*
X138814104Y-70740476D01*
X139099819Y-71311904D02*
X138099819Y-70978571D01*
X138099819Y-70978571D02*
X139099819Y-70645238D01*
X138576009Y-70311904D02*
X138576009Y-69978571D01*
X139099819Y-69835714D02*
X139099819Y-70311904D01*
X139099819Y-70311904D02*
X138099819Y-70311904D01*
X138099819Y-70311904D02*
X138099819Y-69835714D01*
X139099819Y-68883333D02*
X139099819Y-69454761D01*
X139099819Y-69169047D02*
X138099819Y-69169047D01*
X138099819Y-69169047D02*
X138242676Y-69264285D01*
X138242676Y-69264285D02*
X138337914Y-69359523D01*
X138337914Y-69359523D02*
X138385533Y-69454761D01*
X125416667Y-139600057D02*
X125464286Y-139552438D01*
X125464286Y-139552438D02*
X125559524Y-139504819D01*
X125559524Y-139504819D02*
X125797619Y-139504819D01*
X125797619Y-139504819D02*
X125892857Y-139552438D01*
X125892857Y-139552438D02*
X125940476Y-139600057D01*
X125940476Y-139600057D02*
X125988095Y-139695295D01*
X125988095Y-139695295D02*
X125988095Y-139790533D01*
X125988095Y-139790533D02*
X125940476Y-139933390D01*
X125940476Y-139933390D02*
X125369048Y-140504819D01*
X125369048Y-140504819D02*
X125988095Y-140504819D01*
X126892857Y-139504819D02*
X126416667Y-139504819D01*
X126416667Y-139504819D02*
X126369048Y-139981009D01*
X126369048Y-139981009D02*
X126416667Y-139933390D01*
X126416667Y-139933390D02*
X126511905Y-139885771D01*
X126511905Y-139885771D02*
X126750000Y-139885771D01*
X126750000Y-139885771D02*
X126845238Y-139933390D01*
X126845238Y-139933390D02*
X126892857Y-139981009D01*
X126892857Y-139981009D02*
X126940476Y-140076247D01*
X126940476Y-140076247D02*
X126940476Y-140314342D01*
X126940476Y-140314342D02*
X126892857Y-140409580D01*
X126892857Y-140409580D02*
X126845238Y-140457200D01*
X126845238Y-140457200D02*
X126750000Y-140504819D01*
X126750000Y-140504819D02*
X126511905Y-140504819D01*
X126511905Y-140504819D02*
X126416667Y-140457200D01*
X126416667Y-140457200D02*
X126369048Y-140409580D01*
X127321429Y-140504819D02*
X128083333Y-139504819D01*
X127464286Y-139504819D02*
X127559524Y-139552438D01*
X127559524Y-139552438D02*
X127607143Y-139647676D01*
X127607143Y-139647676D02*
X127559524Y-139742914D01*
X127559524Y-139742914D02*
X127464286Y-139790533D01*
X127464286Y-139790533D02*
X127369048Y-139742914D01*
X127369048Y-139742914D02*
X127321429Y-139647676D01*
X127321429Y-139647676D02*
X127369048Y-139552438D01*
X127369048Y-139552438D02*
X127464286Y-139504819D01*
X128035714Y-140457200D02*
X128083333Y-140361961D01*
X128083333Y-140361961D02*
X128035714Y-140266723D01*
X128035714Y-140266723D02*
X127940476Y-140219104D01*
X127940476Y-140219104D02*
X127845238Y-140266723D01*
X127845238Y-140266723D02*
X127797619Y-140361961D01*
X127797619Y-140361961D02*
X127845238Y-140457200D01*
X127845238Y-140457200D02*
X127940476Y-140504819D01*
X127940476Y-140504819D02*
X128035714Y-140457200D01*
X136423333Y-133448819D02*
X136090000Y-132972628D01*
X135851905Y-133448819D02*
X135851905Y-132448819D01*
X135851905Y-132448819D02*
X136232857Y-132448819D01*
X136232857Y-132448819D02*
X136328095Y-132496438D01*
X136328095Y-132496438D02*
X136375714Y-132544057D01*
X136375714Y-132544057D02*
X136423333Y-132639295D01*
X136423333Y-132639295D02*
X136423333Y-132782152D01*
X136423333Y-132782152D02*
X136375714Y-132877390D01*
X136375714Y-132877390D02*
X136328095Y-132925009D01*
X136328095Y-132925009D02*
X136232857Y-132972628D01*
X136232857Y-132972628D02*
X135851905Y-132972628D01*
X136756667Y-132448819D02*
X137375714Y-132448819D01*
X137375714Y-132448819D02*
X137042381Y-132829771D01*
X137042381Y-132829771D02*
X137185238Y-132829771D01*
X137185238Y-132829771D02*
X137280476Y-132877390D01*
X137280476Y-132877390D02*
X137328095Y-132925009D01*
X137328095Y-132925009D02*
X137375714Y-133020247D01*
X137375714Y-133020247D02*
X137375714Y-133258342D01*
X137375714Y-133258342D02*
X137328095Y-133353580D01*
X137328095Y-133353580D02*
X137280476Y-133401200D01*
X137280476Y-133401200D02*
X137185238Y-133448819D01*
X137185238Y-133448819D02*
X136899524Y-133448819D01*
X136899524Y-133448819D02*
X136804286Y-133401200D01*
X136804286Y-133401200D02*
X136756667Y-133353580D01*
D15*
%TO.C,TRANSMITTING*%
X124589000Y-102427000D02*
X127679000Y-102427000D01*
X126134462Y-96877001D02*
G75*
G03*
X124589170Y-102426999I-462J-2989999D01*
G01*
X127678830Y-102427000D02*
G75*
G03*
X126133538Y-96877000I-1544830J2560000D01*
G01*
X128634000Y-99867000D02*
G75*
G03*
X128634000Y-99867000I-2500000J0D01*
G01*
D14*
%TO.C,U2*%
X134770000Y-64810000D02*
X167790000Y-64810000D01*
X167790000Y-64810000D02*
X167790000Y-47030000D01*
X167790000Y-47030000D02*
X134770000Y-47030000D01*
X134770000Y-47030000D02*
X134770000Y-64810000D01*
D15*
%TO.C,R9*%
X152169000Y-136489000D02*
X152169000Y-137439000D01*
X153089000Y-137439000D02*
X151249000Y-137439000D01*
X151249000Y-137439000D02*
X151249000Y-141279000D01*
X153089000Y-141279000D02*
X153089000Y-137439000D01*
X151249000Y-141279000D02*
X153089000Y-141279000D01*
X152169000Y-142229000D02*
X152169000Y-141279000D01*
%TO.C,R4*%
X133678000Y-145328000D02*
X134628000Y-145328000D01*
X134628000Y-144408000D02*
X134628000Y-146248000D01*
X134628000Y-146248000D02*
X138468000Y-146248000D01*
X138468000Y-144408000D02*
X134628000Y-144408000D01*
X138468000Y-146248000D02*
X138468000Y-144408000D01*
X139418000Y-145328000D02*
X138468000Y-145328000D01*
%TO.C,R8*%
X146835000Y-74792000D02*
X146835000Y-73842000D01*
X145915000Y-73842000D02*
X147755000Y-73842000D01*
X147755000Y-73842000D02*
X147755000Y-70002000D01*
X145915000Y-70002000D02*
X145915000Y-73842000D01*
X147755000Y-70002000D02*
X145915000Y-70002000D01*
X146835000Y-69052000D02*
X146835000Y-70002000D01*
%TO.C,R10*%
X146454000Y-142229000D02*
X146454000Y-141279000D01*
X145534000Y-141279000D02*
X147374000Y-141279000D01*
X147374000Y-141279000D02*
X147374000Y-137439000D01*
X145534000Y-137439000D02*
X145534000Y-141279000D01*
X147374000Y-137439000D02*
X145534000Y-137439000D01*
X146454000Y-136489000D02*
X146454000Y-137439000D01*
%TO.C,R7*%
X133400000Y-77918000D02*
X134350000Y-77918000D01*
X134350000Y-76998000D02*
X134350000Y-78838000D01*
X134350000Y-78838000D02*
X138190000Y-78838000D01*
X138190000Y-76998000D02*
X134350000Y-76998000D01*
X138190000Y-78838000D02*
X138190000Y-76998000D01*
X139140000Y-77918000D02*
X138190000Y-77918000D01*
%TO.C,U1*%
X168998000Y-72330000D02*
X151098000Y-72330000D01*
X151098000Y-72330000D02*
X151098000Y-77630000D01*
X168998000Y-73980000D02*
X168998000Y-72330000D01*
X168998000Y-77630000D02*
X168998000Y-75980000D01*
X151098000Y-77630000D02*
X168998000Y-77630000D01*
X168998000Y-73980000D02*
G75*
G03*
X168998000Y-75980000I0J-1000000D01*
G01*
%TO.C,C1*%
X136902000Y-68182000D02*
X136587000Y-68182000D01*
X136902000Y-68182000D02*
X136902000Y-73122000D01*
X134477000Y-68182000D02*
X134162000Y-68182000D01*
X134162000Y-68182000D02*
X134162000Y-73122000D01*
X136902000Y-73122000D02*
X136587000Y-73122000D01*
X134477000Y-73122000D02*
X134162000Y-73122000D01*
%TO.C,100\u0025*%
X124589000Y-115757000D02*
X127679000Y-115757000D01*
X126134462Y-110207001D02*
G75*
G03*
X124589170Y-115756999I-462J-2989999D01*
G01*
X127678830Y-115757000D02*
G75*
G03*
X126133538Y-110207000I-1544830J2560000D01*
G01*
X128634000Y-113197000D02*
G75*
G03*
X128634000Y-113197000I-2500000J0D01*
G01*
%TO.C,J1*%
X149442000Y-108685000D02*
X149442000Y-107355000D01*
X150772000Y-108685000D02*
X149442000Y-108685000D01*
X152042000Y-108685000D02*
X167342000Y-108685000D01*
X152042000Y-108685000D02*
X152042000Y-106025000D01*
X167342000Y-108685000D02*
X167342000Y-106025000D01*
X152042000Y-106025000D02*
X167342000Y-106025000D01*
%TO.C,R1*%
X133720000Y-114467000D02*
X134670000Y-114467000D01*
X134670000Y-113547000D02*
X134670000Y-115387000D01*
X134670000Y-115387000D02*
X138510000Y-115387000D01*
X138510000Y-113547000D02*
X134670000Y-113547000D01*
X138510000Y-115387000D02*
X138510000Y-113547000D01*
X139460000Y-114467000D02*
X138510000Y-114467000D01*
%TO.C,CV1*%
X127746000Y-73122000D02*
X127431000Y-73122000D01*
X130171000Y-73122000D02*
X129856000Y-73122000D01*
X127431000Y-68182000D02*
X127431000Y-73122000D01*
X127746000Y-68182000D02*
X127431000Y-68182000D01*
X130171000Y-68182000D02*
X130171000Y-73122000D01*
X130171000Y-68182000D02*
X129856000Y-68182000D01*
%TO.C,On/Off*%
X161119000Y-142325000D02*
X159789000Y-142325000D01*
X161119000Y-140995000D02*
X161119000Y-142325000D01*
X161119000Y-139725000D02*
X161119000Y-134585000D01*
X161119000Y-139725000D02*
X158459000Y-139725000D01*
X161119000Y-134585000D02*
X158459000Y-134585000D01*
X158459000Y-139725000D02*
X158459000Y-134585000D01*
%TO.C,RV1*%
X127795000Y-80626000D02*
X132865000Y-80626000D01*
X132865000Y-90396000D02*
X132865000Y-80626000D01*
X127795000Y-90396000D02*
X127795000Y-80626000D01*
X127795000Y-90396000D02*
X132865000Y-90396000D01*
%TO.C,R5*%
X133720000Y-101168000D02*
X134670000Y-101168000D01*
X134670000Y-100248000D02*
X134670000Y-102088000D01*
X134670000Y-102088000D02*
X138510000Y-102088000D01*
X138510000Y-100248000D02*
X134670000Y-100248000D01*
X138510000Y-102088000D02*
X138510000Y-100248000D01*
X139460000Y-101168000D02*
X138510000Y-101168000D01*
%TO.C,75\u0025*%
X124589000Y-125917000D02*
X127679000Y-125917000D01*
X126134462Y-120367001D02*
G75*
G03*
X124589170Y-125916999I-462J-2989999D01*
G01*
X127678830Y-125917000D02*
G75*
G03*
X126133538Y-120367000I-1544830J2560000D01*
G01*
X128634000Y-123357000D02*
G75*
G03*
X128634000Y-123357000I-2500000J0D01*
G01*
%TO.C,R2*%
X133678000Y-124627000D02*
X134628000Y-124627000D01*
X134628000Y-123707000D02*
X134628000Y-125547000D01*
X134628000Y-125547000D02*
X138468000Y-125547000D01*
X138468000Y-123707000D02*
X134628000Y-123707000D01*
X138468000Y-125547000D02*
X138468000Y-123707000D01*
X139418000Y-124627000D02*
X138468000Y-124627000D01*
%TO.C,Q1*%
X146768478Y-81386522D02*
G75*
G03*
X142330000Y-83225000I-1838478J-1838478D01*
G01*
X142330000Y-83225000D02*
G75*
G03*
X146768478Y-85063478I2600000J0D01*
G01*
X146780000Y-85025000D02*
X146780000Y-81425000D01*
%TO.C,GND*%
X169450000Y-142738000D02*
X170780000Y-142738000D01*
X169450000Y-144068000D02*
X169450000Y-142738000D01*
X169450000Y-145338000D02*
X169450000Y-145398000D01*
X169450000Y-145338000D02*
X172110000Y-145338000D01*
X169450000Y-145398000D02*
X172110000Y-145398000D01*
X172110000Y-145338000D02*
X172110000Y-145398000D01*
%TO.C,50\u0025*%
X124589000Y-136204000D02*
X127679000Y-136204000D01*
X126134462Y-130654001D02*
G75*
G03*
X124589170Y-136203999I-462J-2989999D01*
G01*
X127678830Y-136204000D02*
G75*
G03*
X126133538Y-130654000I-1544830J2560000D01*
G01*
X128634000Y-133644000D02*
G75*
G03*
X128634000Y-133644000I-2500000J0D01*
G01*
%TO.C,R6*%
X161440000Y-114218000D02*
X160490000Y-114218000D01*
X160490000Y-115138000D02*
X160490000Y-113298000D01*
X160490000Y-113298000D02*
X156650000Y-113298000D01*
X156650000Y-115138000D02*
X160490000Y-115138000D01*
X156650000Y-113298000D02*
X156650000Y-115138000D01*
X155700000Y-114218000D02*
X156650000Y-114218000D01*
%TO.C,AE1*%
X142530000Y-73252000D02*
X141200000Y-73252000D01*
X142530000Y-71922000D02*
X142530000Y-73252000D01*
X142530000Y-70652000D02*
X142530000Y-68052000D01*
X142530000Y-70652000D02*
X139870000Y-70652000D01*
X142530000Y-68052000D02*
X139870000Y-68052000D01*
X139870000Y-70652000D02*
X139870000Y-68052000D01*
%TO.C,25\u0025*%
X124589000Y-146618000D02*
X127679000Y-146618000D01*
X126134462Y-141068001D02*
G75*
G03*
X124589170Y-146617999I-462J-2989999D01*
G01*
X127678830Y-146618000D02*
G75*
G03*
X126133538Y-141068000I-1544830J2560000D01*
G01*
X128634000Y-144058000D02*
G75*
G03*
X128634000Y-144058000I-2500000J0D01*
G01*
%TO.C,REF\u002A\u002A*%
X148540000Y-117518000D02*
X160840000Y-117518000D01*
X148540000Y-120238000D02*
X148540000Y-117518000D01*
X148540000Y-125238000D02*
X148540000Y-122098000D01*
X148540000Y-129818000D02*
X148540000Y-127098000D01*
X160840000Y-117518000D02*
X160840000Y-120238000D01*
X160840000Y-122098000D02*
X160840000Y-125238000D01*
X160840000Y-127098000D02*
X160840000Y-129818000D01*
X160840000Y-129818000D02*
X148540000Y-129818000D01*
X159369050Y-123708000D02*
G75*
G03*
X159369050Y-123708000I-4579050J0D01*
G01*
%TO.C,R3*%
X133720000Y-134914000D02*
X134670000Y-134914000D01*
X134670000Y-133994000D02*
X134670000Y-135834000D01*
X134670000Y-135834000D02*
X138510000Y-135834000D01*
X138510000Y-133994000D02*
X134670000Y-133994000D01*
X138510000Y-135834000D02*
X138510000Y-133994000D01*
X139460000Y-134914000D02*
X138510000Y-134914000D01*
%TO.C,Battery In (6V)*%
X169450000Y-136988000D02*
X170780000Y-136988000D01*
X169450000Y-138318000D02*
X169450000Y-136988000D01*
X169450000Y-139588000D02*
X169450000Y-139648000D01*
X169450000Y-139588000D02*
X172110000Y-139588000D01*
X169450000Y-139648000D02*
X172110000Y-139648000D01*
X172110000Y-139588000D02*
X172110000Y-139648000D01*
%TD*%
M02*
