M48
; DRILL file {KiCad 7.0.6} date Sun May 26 17:55:56 2024
; FORMAT={-:-/ absolute / inch / decimal}
; #@! TF.CreationDate,2024-05-26T17:55:56-07:00
; #@! TF.GenerationSoftware,Kicad,Pcbnew,7.0.6
; #@! TF.FileFunction,Plated,1,2,PTH
FMAT,2
INCH
; #@! TA.AperFunction,Plated,PTH,ComponentDrill
T1C0.0276
; #@! TA.AperFunction,Plated,PTH,ComponentDrill
T2C0.0295
; #@! TA.AperFunction,Plated,PTH,ComponentDrill
T3C0.0315
; #@! TA.AperFunction,Plated,PTH,ComponentDrill
T4C0.0354
; #@! TA.AperFunction,Plated,PTH,ComponentDrill
T5C0.0394
; #@! TA.AperFunction,Plated,PTH,ComponentDrill
T6C0.0433
; #@! TA.AperFunction,Plated,PTH,ComponentDrill
T7C0.0512
; #@! TA.AperFunction,Plated,PTH,ViaDrill
T8C0.0630
%
G90
G05
T1
X5.2259Y-4.9066
X5.2259Y-5.7216
X5.2276Y-3.983
X5.2276Y-4.5066
X5.2276Y-5.3116
X5.5259Y-4.9066
X5.5259Y-5.7216
X5.5276Y-3.983
X5.5276Y-4.5066
X5.5276Y-5.3116
X5.7659Y-5.3366
X5.7659Y-5.6366
X5.9909Y-5.3366
X5.9909Y-5.6366
X6.0929Y-4.4968
X6.3929Y-4.4968
T2
X5.7059Y-3.2266
X5.7059Y-3.2766
X5.7059Y-3.3266
T3
X6.0011Y-2.802
X6.0011Y-3.102
X6.1011Y-2.802
X6.1011Y-3.102
X6.2011Y-2.802
X6.2011Y-3.102
X6.3011Y-2.802
X6.3011Y-3.102
X6.4011Y-2.802
X6.4011Y-3.102
X6.5011Y-2.802
X6.5011Y-3.102
X6.6011Y-2.802
X6.6011Y-3.102
T4
X4.9659Y-3.8818
X4.9659Y-3.9818
X4.9659Y-4.4066
X4.9659Y-4.5066
X4.9659Y-4.8066
X4.9659Y-4.9066
X4.9659Y-5.2116
X4.9659Y-5.3116
X4.9659Y-5.6216
X4.9659Y-5.7216
T5
X5.4059Y-1.9016
X5.4059Y-2.5016
X5.5059Y-1.9016
X5.5059Y-2.5016
X5.6059Y-1.9016
X5.6059Y-2.5016
X5.7059Y-1.9016
X5.7059Y-2.5016
X5.8059Y-1.9016
X5.8059Y-2.5016
X5.9059Y-1.9016
X5.9059Y-2.5016
X5.9359Y-4.2266
X6.0059Y-1.9016
X6.0059Y-2.5016
X6.0359Y-4.2266
X6.1059Y-1.9016
X6.1059Y-2.5016
X6.1359Y-4.2266
X6.2059Y-1.9016
X6.2059Y-2.5016
X6.2359Y-4.2266
X6.2909Y-5.351
X6.2909Y-5.451
X6.2909Y-5.551
X6.3059Y-1.9016
X6.3059Y-2.5016
X6.3359Y-4.2266
X6.4059Y-1.9016
X6.4059Y-2.5016
X6.4359Y-4.2266
X6.5059Y-1.9016
X6.5059Y-2.5016
X6.5359Y-4.2266
X6.7236Y-5.4456
X6.7236Y-5.672
T6
X5.0709Y-2.6831
X5.0709Y-2.88
X5.1309Y-3.2666
X5.1309Y-3.3666
X5.1309Y-3.4666
X5.215Y-3.0676
X5.3359Y-2.6831
X5.3359Y-2.88
X5.515Y-3.0676
X5.5591Y-2.7316
X5.5591Y-2.8316
X5.7809Y-2.6816
X5.7809Y-2.9816
T7
X5.8441Y-4.7704
X5.8441Y-4.9672
X6.3362Y-4.7704
X6.3362Y-4.9672
T8
X5.0307Y-2.5165
X5.074Y-2.1543
X5.4352Y-2.0706
X5.448Y-3.6543
X5.4759Y-2.2916
X5.5602Y-4.6838
X5.5622Y-5.5243
X5.8496Y-4.4594
X5.8575Y-2.2743
X6.2374Y-3.8413
X6.3476Y-2.2231
X6.4659Y-4.8316
X6.5959Y-3.3116
X6.8059Y-2.2116
T0
M30
