%TF.GenerationSoftware,KiCad,Pcbnew,7.0.8*%
%TF.CreationDate,2024-05-22T14:40:07-04:00*%
%TF.ProjectId,avalanche_transmitter,6176616c-616e-4636-9865-5f7472616e73,1.0*%
%TF.SameCoordinates,Original*%
%TF.FileFunction,Soldermask,Bot*%
%TF.FilePolarity,Negative*%
%FSLAX46Y46*%
G04 Gerber Fmt 4.6, Leading zero omitted, Abs format (unit mm)*
G04 Created by KiCad (PCBNEW 7.0.8) date 2024-05-22 14:40:07*
%MOMM*%
%LPD*%
G01*
G04 APERTURE LIST*
%ADD10R,1.700000X1.700000*%
%ADD11O,1.700000X1.700000*%
%ADD12O,1.400000X1.400000*%
%ADD13C,1.400000*%
%ADD14C,1.524000*%
%ADD15R,1.600000X1.600000*%
%ADD16O,1.600000X1.600000*%
%ADD17R,1.800000X1.800000*%
%ADD18C,1.800000*%
%ADD19C,1.440000*%
%ADD20R,1.500000X1.050000*%
%ADD21O,1.500000X1.050000*%
%ADD22C,1.600000*%
%ADD23C,2.100000*%
%ADD24O,3.048000X1.850000*%
G04 APERTURE END LIST*
D10*
%TO.C,SW2*%
X72009000Y-113777000D03*
D11*
X72009000Y-111237000D03*
X72009000Y-108697000D03*
%TD*%
D12*
%TO.C,R10*%
X58674000Y-108331000D03*
D13*
X58674000Y-115951000D03*
%TD*%
D12*
%TO.C,R9*%
X64389000Y-115951000D03*
D13*
X64389000Y-108331000D03*
%TD*%
D14*
%TO.C,U2*%
X49530000Y-22352000D03*
X52070000Y-22352000D03*
X54610000Y-22352000D03*
X57150000Y-22352000D03*
X59690000Y-22352000D03*
X62230000Y-22352000D03*
X64770000Y-22352000D03*
X67310000Y-22352000D03*
X69850000Y-22352000D03*
X72390000Y-22352000D03*
X74930000Y-22352000D03*
X77470000Y-22352000D03*
X49530000Y-35052000D03*
X52070000Y-35052000D03*
X54610000Y-35052000D03*
X57150000Y-35052000D03*
X59690000Y-35052000D03*
X62230000Y-35052000D03*
X64770000Y-35052000D03*
X67310000Y-35052000D03*
X69850000Y-35052000D03*
X72390000Y-35052000D03*
X74930000Y-35052000D03*
X77470000Y-35052000D03*
%TD*%
D15*
%TO.C,U1*%
X79888000Y-43952000D03*
D16*
X77348000Y-43952000D03*
X74808000Y-43952000D03*
X72268000Y-43952000D03*
X69728000Y-43952000D03*
X67188000Y-43952000D03*
X64648000Y-43952000D03*
X64648000Y-51572000D03*
X67188000Y-51572000D03*
X69728000Y-51572000D03*
X72268000Y-51572000D03*
X74808000Y-51572000D03*
X77348000Y-51572000D03*
X79888000Y-51572000D03*
%TD*%
D17*
%TO.C,TRANSMITTING1*%
X38354000Y-73919000D03*
D18*
X38354000Y-71379000D03*
%TD*%
D19*
%TO.C,RV1*%
X42545000Y-55753000D03*
X42545000Y-58293000D03*
X42545000Y-60833000D03*
%TD*%
D13*
%TO.C,R8*%
X59055000Y-48514000D03*
D12*
X59055000Y-40894000D03*
%TD*%
D20*
%TO.C,Q1*%
X57150000Y-57277000D03*
D21*
X57150000Y-56007000D03*
X57150000Y-54737000D03*
%TD*%
D10*
%TO.C,J1*%
X62992000Y-80137000D03*
D11*
X65532000Y-80137000D03*
X68072000Y-80137000D03*
X70612000Y-80137000D03*
X73152000Y-80137000D03*
X75692000Y-80137000D03*
X78232000Y-80137000D03*
%TD*%
D17*
%TO.C,D1*%
X38354000Y-87249000D03*
D18*
X38354000Y-84709000D03*
%TD*%
D22*
%TO.C,C3*%
X47752000Y-40934000D03*
X47752000Y-45934000D03*
%TD*%
%TO.C,C2*%
X41021000Y-40934000D03*
X41021000Y-45934000D03*
%TD*%
D10*
%TO.C,AE1*%
X53975000Y-44704000D03*
D11*
X53975000Y-42164000D03*
%TD*%
D18*
%TO.C,100\u00251*%
X38354000Y-115570000D03*
D17*
X38354000Y-118110000D03*
%TD*%
%TO.C,75\u00251*%
X38354000Y-107696000D03*
D18*
X38354000Y-105156000D03*
%TD*%
D17*
%TO.C,50\u00251*%
X38354000Y-97409000D03*
D18*
X38354000Y-94869000D03*
%TD*%
D23*
%TO.C,REF\u002A\u002A*%
X34600000Y-122400000D03*
%TD*%
D12*
%TO.C,R4*%
X52578000Y-118110000D03*
D13*
X44958000Y-118110000D03*
%TD*%
%TO.C,R7*%
X44680000Y-50700000D03*
D12*
X52300000Y-50700000D03*
%TD*%
D13*
%TO.C,R1*%
X45000000Y-87249000D03*
D12*
X52620000Y-87249000D03*
%TD*%
%TO.C,R5*%
X52620000Y-73950000D03*
D13*
X45000000Y-73950000D03*
%TD*%
D23*
%TO.C,REF\u002A\u002A*%
X84500000Y-17350000D03*
%TD*%
D12*
%TO.C,R2*%
X52578000Y-97409000D03*
D13*
X44958000Y-97409000D03*
%TD*%
D10*
%TO.C,GND*%
X83000000Y-116850000D03*
%TD*%
D13*
%TO.C,R6*%
X74600000Y-87000000D03*
D12*
X66980000Y-87000000D03*
%TD*%
D23*
%TO.C,REF\u002A\u002A*%
X35000000Y-17350000D03*
%TD*%
%TO.C,REF\u002A\u002A*%
X84800000Y-122400000D03*
%TD*%
D24*
%TO.C,REF\u002A\u002A*%
X60660000Y-93950000D03*
X73160000Y-93950000D03*
X60660000Y-98950000D03*
X73160000Y-98950000D03*
%TD*%
D12*
%TO.C,R3*%
X52620000Y-107696000D03*
D13*
X45000000Y-107696000D03*
%TD*%
D10*
%TO.C,Battery In (6V)*%
X83000000Y-111100000D03*
%TD*%
M02*
