M48
; DRILL file {KiCad 7.0.8} date Wed May 22 14:40:05 2024
; FORMAT={-:-/ absolute / inch / decimal}
; #@! TF.CreationDate,2024-05-22T14:40:05-04:00
; #@! TF.GenerationSoftware,Kicad,Pcbnew,7.0.8
; #@! TF.FileFunction,Plated,1,2,PTH
FMAT,2
INCH
; #@! TA.AperFunction,Plated,PTH,ComponentDrill
T1C0.0276
; #@! TA.AperFunction,Plated,PTH,ComponentDrill
T2C0.0295
; #@! TA.AperFunction,Plated,PTH,ComponentDrill
T3C0.0300
; #@! TA.AperFunction,Plated,PTH,ComponentDrill
T4C0.0315
; #@! TA.AperFunction,Plated,PTH,ComponentDrill
T5C0.0354
; #@! TA.AperFunction,Plated,PTH,ComponentDrill
T6C0.0394
; #@! TA.AperFunction,Plated,PTH,ComponentDrill
T7C0.0512
; #@! TA.AperFunction,Plated,PTH,ViaDrill
T8C0.0630
%
G90
G05
T1
X1.7591Y-1.9961
X1.77Y-3.835
X1.77Y-4.65
X1.7717Y-2.9114
X1.7717Y-3.435
X1.7717Y-4.24
X2.0591Y-1.9961
X2.07Y-3.835
X2.07Y-4.65
X2.0717Y-2.9114
X2.0717Y-3.435
X2.0717Y-4.24
X2.31Y-4.265
X2.31Y-4.565
X2.325Y-1.61
X2.325Y-1.91
X2.535Y-4.265
X2.535Y-4.565
X2.637Y-3.4252
X2.937Y-3.4252
T2
X2.25Y-2.155
X2.25Y-2.205
X2.25Y-2.255
T3
X1.95Y-0.88
X1.95Y-1.38
X2.05Y-0.88
X2.05Y-1.38
X2.15Y-0.88
X2.15Y-1.38
X2.25Y-0.88
X2.25Y-1.38
X2.35Y-0.88
X2.35Y-1.38
X2.45Y-0.88
X2.45Y-1.38
X2.55Y-0.88
X2.55Y-1.38
X2.65Y-0.88
X2.65Y-1.38
X2.75Y-0.88
X2.75Y-1.38
X2.85Y-0.88
X2.85Y-1.38
X2.95Y-0.88
X2.95Y-1.38
X3.05Y-0.88
X3.05Y-1.38
T4
X1.615Y-1.6116
X1.615Y-1.8084
X1.675Y-2.195
X1.675Y-2.295
X1.675Y-2.395
X1.88Y-1.6116
X1.88Y-1.8084
X2.5452Y-1.7304
X2.5452Y-2.0304
X2.6452Y-1.7304
X2.6452Y-2.0304
X2.7452Y-1.7304
X2.7452Y-2.0304
X2.8452Y-1.7304
X2.8452Y-2.0304
X2.9452Y-1.7304
X2.9452Y-2.0304
X3.0452Y-1.7304
X3.0452Y-2.0304
X3.1452Y-1.7304
X3.1452Y-2.0304
T5
X1.51Y-2.8102
X1.51Y-2.9102
X1.51Y-3.335
X1.51Y-3.435
X1.51Y-3.735
X1.51Y-3.835
X1.51Y-4.14
X1.51Y-4.24
X1.51Y-4.55
X1.51Y-4.65
T6
X2.125Y-1.66
X2.125Y-1.76
X2.48Y-3.155
X2.58Y-3.155
X2.68Y-3.155
X2.78Y-3.155
X2.835Y-4.2794
X2.835Y-4.3794
X2.835Y-4.4794
X2.88Y-3.155
X2.98Y-3.155
X3.08Y-3.155
X3.2677Y-4.374
X3.2677Y-4.6004
T7
X2.3882Y-3.6988
X2.3882Y-3.8957
X2.8803Y-3.6988
X2.8803Y-3.8957
T8
X1.5748Y-1.4449
X1.6181Y-1.0827
X1.9793Y-0.999
X1.9921Y-2.5827
X2.02Y-1.22
X2.1043Y-3.6122
X2.1063Y-4.4528
X2.3937Y-3.3878
X2.4016Y-1.2028
X2.7815Y-2.7697
X2.8917Y-1.1516
X3.01Y-3.76
X3.14Y-2.24
X3.35Y-1.14
T0
M30
